<?xml version="1.0" standalone="no"?>
 <!DOCTYPE svg PUBLIC "-//W3C//DTD SVG 1.1//EN" 
 "http://www.w3.org/Graphics/SVG/1.1/DTD/svg11.dtd"> 
<svg
  xmlns:svg="http://www.w3.org/2000/svg"
  xmlns="http://www.w3.org/2000/svg"
  xmlns:xlink="http://www.w3.org/1999/xlink"
  version="1.1"
  width="297.0022mm" height="210.0072mm" viewBox="0.0000 0.0000 297.0022 210.0072">
<title>SVG Image created as DaisyDelayHardware-B_Silkscreen.svg date 2024/06/12 11:46:33 </title>
  <desc>Image generated by PCBNEW </desc>
<g style="fill:#000000; fill-opacity:1.0000;stroke:#000000; stroke-opacity:1.0000;
stroke-linecap:round; stroke-linejoin:round;"
 transform="translate(0 0) scale(1 1)">
</g>
<g style="fill:none; 
stroke:#000000; stroke-width:0.1500; stroke-opacity:1; 
stroke-linecap:round; stroke-linejoin:round;">
<g transform="rotate(-90.000000 178.9430 61.1900)">
<text x="178.9430" y="61.5900"
transform="scale(-1 1) translate(-357.886000 0)"
textLength="8.2900" font-size="1.0667" lengthAdjust="spacingAndGlyphs"
text-anchor="middle" opacity="0">MCP6002-xP</text>
</g>
<g class="stroked-text"><desc>MCP6002-xP</desc>
<path d="M179.3053 57.3805
L178.5053 57.3805
" />
<path d="M178.5053 57.3805
L179.0767 57.6471
" />
<path d="M179.0767 57.6471
L178.5053 57.9138
" />
<path d="M178.5053 57.9138
L179.3053 57.9138
" />
<path d="M179.2291 58.7519
L179.2672 58.7138
" />
<path d="M179.2672 58.7138
L179.3053 58.5995
" />
<path d="M179.3053 58.5995
L179.3053 58.5233
" />
<path d="M179.3053 58.5233
L179.2672 58.4090
" />
<path d="M179.2672 58.4090
L179.1910 58.3329
" />
<path d="M179.1910 58.3329
L179.1148 58.2948
" />
<path d="M179.1148 58.2948
L178.9624 58.2567
" />
<path d="M178.9624 58.2567
L178.8482 58.2567
" />
<path d="M178.8482 58.2567
L178.6958 58.2948
" />
<path d="M178.6958 58.2948
L178.6196 58.3329
" />
<path d="M178.6196 58.3329
L178.5434 58.4090
" />
<path d="M178.5434 58.4090
L178.5053 58.5233
" />
<path d="M178.5053 58.5233
L178.5053 58.5995
" />
<path d="M178.5053 58.5995
L178.5434 58.7138
" />
<path d="M178.5434 58.7138
L178.5815 58.7519
" />
<path d="M179.3053 59.0948
L178.5053 59.0948
" />
<path d="M178.5053 59.0948
L178.5053 59.3995
" />
<path d="M178.5053 59.3995
L178.5434 59.4757
" />
<path d="M178.5434 59.4757
L178.5815 59.5138
" />
<path d="M178.5815 59.5138
L178.6577 59.5519
" />
<path d="M178.6577 59.5519
L178.7720 59.5519
" />
<path d="M178.7720 59.5519
L178.8482 59.5138
" />
<path d="M178.8482 59.5138
L178.8862 59.4757
" />
<path d="M178.8862 59.4757
L178.9243 59.3995
" />
<path d="M178.9243 59.3995
L178.9243 59.0948
" />
<path d="M178.5053 60.2376
L178.5053 60.0852
" />
<path d="M178.5053 60.0852
L178.5434 60.0090
" />
<path d="M178.5434 60.0090
L178.5815 59.9710
" />
<path d="M178.5815 59.9710
L178.6958 59.8948
" />
<path d="M178.6958 59.8948
L178.8482 59.8567
" />
<path d="M178.8482 59.8567
L179.1529 59.8567
" />
<path d="M179.1529 59.8567
L179.2291 59.8948
" />
<path d="M179.2291 59.8948
L179.2672 59.9329
" />
<path d="M179.2672 59.9329
L179.3053 60.0090
" />
<path d="M179.3053 60.0090
L179.3053 60.1614
" />
<path d="M179.3053 60.1614
L179.2672 60.2376
" />
<path d="M179.2672 60.2376
L179.2291 60.2757
" />
<path d="M179.2291 60.2757
L179.1529 60.3138
" />
<path d="M179.1529 60.3138
L178.9624 60.3138
" />
<path d="M178.9624 60.3138
L178.8862 60.2757
" />
<path d="M178.8862 60.2757
L178.8482 60.2376
" />
<path d="M178.8482 60.2376
L178.8101 60.1614
" />
<path d="M178.8101 60.1614
L178.8101 60.0090
" />
<path d="M178.8101 60.0090
L178.8482 59.9329
" />
<path d="M178.8482 59.9329
L178.8862 59.8948
" />
<path d="M178.8862 59.8948
L178.9624 59.8567
" />
<path d="M178.5053 60.8090
L178.5053 60.8852
" />
<path d="M178.5053 60.8852
L178.5434 60.9614
" />
<path d="M178.5434 60.9614
L178.5815 60.9995
" />
<path d="M178.5815 60.9995
L178.6577 61.0376
" />
<path d="M178.6577 61.0376
L178.8101 61.0757
" />
<path d="M178.8101 61.0757
L179.0005 61.0757
" />
<path d="M179.0005 61.0757
L179.1529 61.0376
" />
<path d="M179.1529 61.0376
L179.2291 60.9995
" />
<path d="M179.2291 60.9995
L179.2672 60.9614
" />
<path d="M179.2672 60.9614
L179.3053 60.8852
" />
<path d="M179.3053 60.8852
L179.3053 60.8090
" />
<path d="M179.3053 60.8090
L179.2672 60.7329
" />
<path d="M179.2672 60.7329
L179.2291 60.6948
" />
<path d="M179.2291 60.6948
L179.1529 60.6567
" />
<path d="M179.1529 60.6567
L179.0005 60.6186
" />
<path d="M179.0005 60.6186
L178.8101 60.6186
" />
<path d="M178.8101 60.6186
L178.6577 60.6567
" />
<path d="M178.6577 60.6567
L178.5815 60.6948
" />
<path d="M178.5815 60.6948
L178.5434 60.7329
" />
<path d="M178.5434 60.7329
L178.5053 60.8090
" />
<path d="M178.5053 61.5710
L178.5053 61.6471
" />
<path d="M178.5053 61.6471
L178.5434 61.7233
" />
<path d="M178.5434 61.7233
L178.5815 61.7614
" />
<path d="M178.5815 61.7614
L178.6577 61.7995
" />
<path d="M178.6577 61.7995
L178.8101 61.8376
" />
<path d="M178.8101 61.8376
L179.0005 61.8376
" />
<path d="M179.0005 61.8376
L179.1529 61.7995
" />
<path d="M179.1529 61.7995
L179.2291 61.7614
" />
<path d="M179.2291 61.7614
L179.2672 61.7233
" />
<path d="M179.2672 61.7233
L179.3053 61.6471
" />
<path d="M179.3053 61.6471
L179.3053 61.5710
" />
<path d="M179.3053 61.5710
L179.2672 61.4948
" />
<path d="M179.2672 61.4948
L179.2291 61.4567
" />
<path d="M179.2291 61.4567
L179.1529 61.4186
" />
<path d="M179.1529 61.4186
L179.0005 61.3805
" />
<path d="M179.0005 61.3805
L178.8101 61.3805
" />
<path d="M178.8101 61.3805
L178.6577 61.4186
" />
<path d="M178.6577 61.4186
L178.5815 61.4567
" />
<path d="M178.5815 61.4567
L178.5434 61.4948
" />
<path d="M178.5434 61.4948
L178.5053 61.5710
" />
<path d="M178.5815 62.1424
L178.5434 62.1805
" />
<path d="M178.5434 62.1805
L178.5053 62.2567
" />
<path d="M178.5053 62.2567
L178.5053 62.4471
" />
<path d="M178.5053 62.4471
L178.5434 62.5233
" />
<path d="M178.5434 62.5233
L178.5815 62.5614
" />
<path d="M178.5815 62.5614
L178.6577 62.5995
" />
<path d="M178.6577 62.5995
L178.7339 62.5995
" />
<path d="M178.7339 62.5995
L178.8482 62.5614
" />
<path d="M178.8482 62.5614
L179.3053 62.1043
" />
<path d="M179.3053 62.1043
L179.3053 62.5995
" />
<path d="M179.0005 62.9424
L179.0005 63.5519
" />
<path d="M179.3053 63.8567
L178.7720 64.2757
" />
<path d="M178.7720 63.8567
L179.3053 64.2757
" />
<path d="M179.3053 64.5805
L178.5053 64.5805
" />
<path d="M178.5053 64.5805
L178.5053 64.8852
" />
<path d="M178.5053 64.8852
L178.5434 64.9614
" />
<path d="M178.5434 64.9614
L178.5815 64.9995
" />
<path d="M178.5815 64.9995
L178.6577 65.0376
" />
<path d="M178.6577 65.0376
L178.7720 65.0376
" />
<path d="M178.7720 65.0376
L178.8482 64.9995
" />
<path d="M178.8482 64.9995
L178.8862 64.9614
" />
<path d="M178.8862 64.9614
L178.9243 64.8852
" />
<path d="M178.9243 64.8852
L178.9243 64.5805
" />
</g><g transform="rotate(-90.000000 175.0060 104.2430)">
<text x="175.0060" y="104.6430"
transform="scale(-1 1) translate(-350.012000 0)"
textLength="3.8329" font-size="1.0667" lengthAdjust="spacingAndGlyphs"
text-anchor="middle" opacity="0">TL074</text>
</g>
<g class="stroked-text"><desc>TL074</desc>
<path d="M174.5683 102.5478
L174.5683 103.0049
" />
<path d="M175.3683 102.7763
L174.5683 102.7763
" />
<path d="M175.3683 103.6525
L175.3683 103.2716
" />
<path d="M175.3683 103.2716
L174.5683 103.2716
" />
<path d="M174.5683 104.0716
L174.5683 104.1478
" />
<path d="M174.5683 104.1478
L174.6064 104.2240
" />
<path d="M174.6064 104.2240
L174.6445 104.2620
" />
<path d="M174.6445 104.2620
L174.7207 104.3001
" />
<path d="M174.7207 104.3001
L174.8731 104.3382
" />
<path d="M174.8731 104.3382
L175.0635 104.3382
" />
<path d="M175.0635 104.3382
L175.2159 104.3001
" />
<path d="M175.2159 104.3001
L175.2921 104.2620
" />
<path d="M175.2921 104.2620
L175.3302 104.2240
" />
<path d="M175.3302 104.2240
L175.3683 104.1478
" />
<path d="M175.3683 104.1478
L175.3683 104.0716
" />
<path d="M175.3683 104.0716
L175.3302 103.9954
" />
<path d="M175.3302 103.9954
L175.2921 103.9573
" />
<path d="M175.2921 103.9573
L175.2159 103.9192
" />
<path d="M175.2159 103.9192
L175.0635 103.8811
" />
<path d="M175.0635 103.8811
L174.8731 103.8811
" />
<path d="M174.8731 103.8811
L174.7207 103.9192
" />
<path d="M174.7207 103.9192
L174.6445 103.9573
" />
<path d="M174.6445 103.9573
L174.6064 103.9954
" />
<path d="M174.6064 103.9954
L174.5683 104.0716
" />
<path d="M174.5683 104.6049
L174.5683 105.1382
" />
<path d="M174.5683 105.1382
L175.3683 104.7954
" />
<path d="M174.8350 105.7859
L175.3683 105.7859
" />
<path d="M174.5302 105.5954
L175.1016 105.4049
" />
<path d="M175.1016 105.4049
L175.1016 105.9001
" />
</g><text x="177.8000" y="35.4550"
transform="scale(-1 1) translate(-355.600000 0)"
textLength="4.9643" font-size="1.3333" lengthAdjust="spacingAndGlyphs"
text-anchor="middle" opacity="0">SEED1</text>
<g class="stroked-text"><desc>SEED1</desc>
<path d="M179.9667 35.3622
L179.8238 35.4098
" />
<path d="M179.8238 35.4098
L179.5857 35.4098
" />
<path d="M179.5857 35.4098
L179.4905 35.3622
" />
<path d="M179.4905 35.3622
L179.4429 35.3146
" />
<path d="M179.4429 35.3146
L179.3952 35.2193
" />
<path d="M179.3952 35.2193
L179.3952 35.1241
" />
<path d="M179.3952 35.1241
L179.4429 35.0289
" />
<path d="M179.4429 35.0289
L179.4905 34.9812
" />
<path d="M179.4905 34.9812
L179.5857 34.9336
" />
<path d="M179.5857 34.9336
L179.7762 34.8860
" />
<path d="M179.7762 34.8860
L179.8714 34.8384
" />
<path d="M179.8714 34.8384
L179.9190 34.7908
" />
<path d="M179.9190 34.7908
L179.9667 34.6955
" />
<path d="M179.9667 34.6955
L179.9667 34.6003
" />
<path d="M179.9667 34.6003
L179.9190 34.5051
" />
<path d="M179.9190 34.5051
L179.8714 34.4574
" />
<path d="M179.8714 34.4574
L179.7762 34.4098
" />
<path d="M179.7762 34.4098
L179.5381 34.4098
" />
<path d="M179.5381 34.4098
L179.3952 34.4574
" />
<path d="M178.9667 34.8860
L178.6333 34.8860
" />
<path d="M178.4905 35.4098
L178.9667 35.4098
" />
<path d="M178.9667 35.4098
L178.9667 34.4098
" />
<path d="M178.9667 34.4098
L178.4905 34.4098
" />
<path d="M178.0619 34.8860
L177.7286 34.8860
" />
<path d="M177.5857 35.4098
L178.0619 35.4098
" />
<path d="M178.0619 35.4098
L178.0619 34.4098
" />
<path d="M178.0619 34.4098
L177.5857 34.4098
" />
<path d="M177.1571 35.4098
L177.1571 34.4098
" />
<path d="M177.1571 34.4098
L176.9190 34.4098
" />
<path d="M176.9190 34.4098
L176.7762 34.4574
" />
<path d="M176.7762 34.4574
L176.6810 34.5527
" />
<path d="M176.6810 34.5527
L176.6333 34.6479
" />
<path d="M176.6333 34.6479
L176.5857 34.8384
" />
<path d="M176.5857 34.8384
L176.5857 34.9812
" />
<path d="M176.5857 34.9812
L176.6333 35.1717
" />
<path d="M176.6333 35.1717
L176.6810 35.2670
" />
<path d="M176.6810 35.2670
L176.7762 35.3622
" />
<path d="M176.7762 35.3622
L176.9190 35.4098
" />
<path d="M176.9190 35.4098
L177.1571 35.4098
" />
<path d="M175.6333 35.4098
L176.2048 35.4098
" />
<path d="M175.9190 35.4098
L175.9190 34.4098
" />
<path d="M175.9190 34.4098
L176.0143 34.5527
" />
<path d="M176.0143 34.5527
L176.1095 34.6479
" />
<path d="M176.1095 34.6479
L176.2048 34.6955
" />
</g><text x="181.8640" y="67.0510"
transform="scale(-1 1) translate(-363.728000 0)"
textLength="4.0995" font-size="1.0667" lengthAdjust="spacingAndGlyphs"
text-anchor="middle" opacity="0">220µF</text>
<g class="stroked-text"><desc>220µF</desc>
<path d="M183.6164 66.2895
L183.5783 66.2514
" />
<path d="M183.5783 66.2514
L183.5021 66.2133
" />
<path d="M183.5021 66.2133
L183.3116 66.2133
" />
<path d="M183.3116 66.2133
L183.2354 66.2514
" />
<path d="M183.2354 66.2514
L183.1973 66.2895
" />
<path d="M183.1973 66.2895
L183.1592 66.3657
" />
<path d="M183.1592 66.3657
L183.1592 66.4419
" />
<path d="M183.1592 66.4419
L183.1973 66.5562
" />
<path d="M183.1973 66.5562
L183.6545 67.0133
" />
<path d="M183.6545 67.0133
L183.1592 67.0133
" />
<path d="M182.8545 66.2895
L182.8164 66.2514
" />
<path d="M182.8164 66.2514
L182.7402 66.2133
" />
<path d="M182.7402 66.2133
L182.5497 66.2133
" />
<path d="M182.5497 66.2133
L182.4735 66.2514
" />
<path d="M182.4735 66.2514
L182.4354 66.2895
" />
<path d="M182.4354 66.2895
L182.3973 66.3657
" />
<path d="M182.3973 66.3657
L182.3973 66.4419
" />
<path d="M182.3973 66.4419
L182.4354 66.5562
" />
<path d="M182.4354 66.5562
L182.8926 67.0133
" />
<path d="M182.8926 67.0133
L182.3973 67.0133
" />
<path d="M181.9021 66.2133
L181.8259 66.2133
" />
<path d="M181.8259 66.2133
L181.7497 66.2514
" />
<path d="M181.7497 66.2514
L181.7116 66.2895
" />
<path d="M181.7116 66.2895
L181.6735 66.3657
" />
<path d="M181.6735 66.3657
L181.6354 66.5181
" />
<path d="M181.6354 66.5181
L181.6354 66.7085
" />
<path d="M181.6354 66.7085
L181.6735 66.8609
" />
<path d="M181.6735 66.8609
L181.7116 66.9371
" />
<path d="M181.7116 66.9371
L181.7497 66.9752
" />
<path d="M181.7497 66.9752
L181.8259 67.0133
" />
<path d="M181.8259 67.0133
L181.9021 67.0133
" />
<path d="M181.9021 67.0133
L181.9783 66.9752
" />
<path d="M181.9783 66.9752
L182.0164 66.9371
" />
<path d="M182.0164 66.9371
L182.0545 66.8609
" />
<path d="M182.0545 66.8609
L182.0926 66.7085
" />
<path d="M182.0926 66.7085
L182.0926 66.5181
" />
<path d="M182.0926 66.5181
L182.0545 66.3657
" />
<path d="M182.0545 66.3657
L182.0164 66.2895
" />
<path d="M182.0164 66.2895
L181.9783 66.2514
" />
<path d="M181.9783 66.2514
L181.9021 66.2133
" />
<path d="M181.2926 66.4800
L181.2926 67.2800
" />
<path d="M180.9116 66.8990
L180.8735 66.9752
" />
<path d="M180.8735 66.9752
L180.7973 67.0133
" />
<path d="M181.2926 66.8990
L181.2545 66.9752
" />
<path d="M181.2545 66.9752
L181.1783 67.0133
" />
<path d="M181.1783 67.0133
L181.0259 67.0133
" />
<path d="M181.0259 67.0133
L180.9497 66.9752
" />
<path d="M180.9497 66.9752
L180.9116 66.8990
" />
<path d="M180.9116 66.8990
L180.9116 66.4800
" />
<path d="M180.1878 66.5942
L180.4545 66.5942
" />
<path d="M180.4545 67.0133
L180.4545 66.2133
" />
<path d="M180.4545 66.2133
L180.0735 66.2133
" />
</g></g>
<g style="fill:none; 
stroke:#000000; stroke-width:0.1200; stroke-opacity:1; 
stroke-linecap:round; stroke-linejoin:round;">
<path d="M175.1500 55.6400
L175.1500 65.9200
" />
<path d="M175.1500 65.9200
L180.4500 65.9200
" />
<path d="M176.8000 55.6400
L175.1500 55.6400
" />
<path d="M180.4500 55.6400
L178.8000 55.6400
" />
<path d="M180.4500 65.9200
L180.4500 55.6400
" />
<path d="M176.8000 55.6400 A1.0000 1.0000 0.0 0 0 178.8000 55.6400" />
<path d="M173.9300 101.0850
L173.9300 106.3850
" />
<path d="M173.9300 106.3850
L191.8300 106.3850
" />
<path d="M191.8300 101.0850
L173.9300 101.0850
" />
<path d="M191.8300 102.7350
L191.8300 101.0850
" />
<path d="M191.8300 106.3850
L191.8300 104.7350
" />
<path d="M191.8300 102.7350 A1.0000 1.0000 0.0 0 0 191.8300 104.7350" />
<path d="M168.9000 37.1550
L186.7000 37.1550
" />
<path d="M168.9000 88.1550
L168.9000 37.1550
" />
<path d="M171.4200 88.1550
L171.4200 37.1550
" />
<path d="M173.8000 35.9550
L181.8000 35.9550
" />
<path d="M173.8000 37.1550
L173.8000 35.9550
" />
<path d="M181.8000 35.9550
L181.8000 37.1550
" />
<path d="M184.2200 88.1550
L184.2200 37.1550
" />
<path d="M186.7000 37.1550
L186.7000 88.1550
" />
<path d="M186.7000 88.1550
L168.9000 88.1550
" />
<path d="M187.0000 36.8550
L184.7000 36.8550
" />
<path d="M187.0000 39.2550
L187.0000 36.8550
" />
<path d="M173.7390 71.2480
L173.7390 70.1820
" />
<path d="M173.7790 71.4830
L173.7790 69.9470
" />
<path d="M173.8190 71.6630
L173.8190 69.7670
" />
<path d="M173.8590 71.8130
L173.8590 69.6170
" />
<path d="M173.8990 71.9440
L173.8990 69.4860
" />
<path d="M173.9390 72.0610
L173.9390 69.3690
" />
<path d="M173.9790 72.1680
L173.9790 69.2620
" />
<path d="M174.0190 72.2670
L174.0190 69.1630
" />
<path d="M174.0590 72.3600
L174.0590 69.0700
" />
<path d="M174.0990 72.4460
L174.0990 68.9840
" />
<path d="M174.1390 72.5280
L174.1390 68.9020
" />
<path d="M174.1790 72.6050
L174.1790 68.8250
" />
<path d="M174.2190 72.6790
L174.2190 68.7510
" />
<path d="M174.2590 72.7490
L174.2590 68.6810
" />
<path d="M174.2990 72.8170
L174.2990 68.6130
" />
<path d="M174.3390 72.8810
L174.3390 68.5490
" />
<path d="M174.3790 72.9430
L174.3790 68.4870
" />
<path d="M174.4190 73.0020
L174.4190 68.4280
" />
<path d="M174.4590 73.0600
L174.4590 68.3700
" />
<path d="M174.4990 73.1150
L174.4990 68.3150
" />
<path d="M174.5390 73.1690
L174.5390 68.2610
" />
<path d="M174.5790 73.2200
L174.5790 68.2100
" />
<path d="M174.6190 73.2710
L174.6190 68.1590
" />
<path d="M174.6590 73.3190
L174.6590 68.1110
" />
<path d="M174.6990 73.3660
L174.6990 68.0640
" />
<path d="M174.7390 73.4120
L174.7390 68.0180
" />
<path d="M174.7790 73.4560
L174.7790 67.9740
" />
<path d="M174.8190 73.4990
L174.8190 67.9310
" />
<path d="M174.8590 73.5410
L174.8590 67.8890
" />
<path d="M174.8990 73.5820
L174.8990 67.8480
" />
<path d="M174.9390 73.6220
L174.9390 67.8080
" />
<path d="M174.9790 73.6600
L174.9790 67.7700
" />
<path d="M175.0190 73.6980
L175.0190 67.7320
" />
<path d="M175.0590 73.7340
L175.0590 67.6960
" />
<path d="M175.0990 73.7700
L175.0990 67.6600
" />
<path d="M175.1390 73.8050
L175.1390 67.6250
" />
<path d="M175.1790 73.8390
L175.1790 67.5910
" />
<path d="M175.2190 73.8710
L175.2190 67.5590
" />
<path d="M175.2590 73.9040
L175.2590 67.5260
" />
<path d="M175.2990 73.9350
L175.2990 67.4950
" />
<path d="M175.3390 73.9650
L175.3390 67.4650
" />
<path d="M175.3790 73.9950
L175.3790 67.4350
" />
<path d="M175.4190 74.0240
L175.4190 67.4060
" />
<path d="M175.4590 74.0530
L175.4590 67.3770
" />
<path d="M175.4990 74.0800
L175.4990 67.3500
" />
<path d="M175.5390 69.6750
L175.5390 67.3230
" />
<path d="M175.5390 74.1070
L175.5390 71.7550
" />
<path d="M175.5790 69.6750
L175.5790 67.2970
" />
<path d="M175.5790 74.1330
L175.5790 71.7550
" />
<path d="M175.6190 69.6750
L175.6190 67.2710
" />
<path d="M175.6190 74.1590
L175.6190 71.7550
" />
<path d="M175.6590 69.6750
L175.6590 67.2460
" />
<path d="M175.6590 74.1840
L175.6590 71.7550
" />
<path d="M175.6990 69.6750
L175.6990 67.2220
" />
<path d="M175.6990 74.2080
L175.6990 71.7550
" />
<path d="M175.7390 69.6750
L175.7390 67.1980
" />
<path d="M175.7390 74.2320
L175.7390 71.7550
" />
<path d="M175.7790 69.6750
L175.7790 67.1750
" />
<path d="M175.7790 74.2550
L175.7790 71.7550
" />
<path d="M175.8190 69.6750
L175.8190 67.1530
" />
<path d="M175.8190 74.2770
L175.8190 71.7550
" />
<path d="M175.8590 69.6750
L175.8590 67.1310
" />
<path d="M175.8590 74.2990
L175.8590 71.7550
" />
<path d="M175.8990 69.6750
L175.8990 67.1090
" />
<path d="M175.8990 74.3210
L175.8990 71.7550
" />
<path d="M175.9390 69.6750
L175.9390 67.0880
" />
<path d="M175.9390 74.3420
L175.9390 71.7550
" />
<path d="M175.9790 69.6750
L175.9790 67.0680
" />
<path d="M175.9790 74.3620
L175.9790 71.7550
" />
<path d="M176.0190 69.6750
L176.0190 67.0490
" />
<path d="M176.0190 74.3810
L176.0190 71.7550
" />
<path d="M176.0590 69.6750
L176.0590 67.0290
" />
<path d="M176.0590 74.4010
L176.0590 71.7550
" />
<path d="M176.0990 69.6750
L176.0990 67.0110
" />
<path d="M176.0990 74.4190
L176.0990 71.7550
" />
<path d="M176.1390 69.6750
L176.1390 66.9930
" />
<path d="M176.1390 74.4370
L176.1390 71.7550
" />
<path d="M176.1790 69.6750
L176.1790 66.9750
" />
<path d="M176.1790 74.4550
L176.1790 71.7550
" />
<path d="M176.2190 69.6750
L176.2190 66.9580
" />
<path d="M176.2190 74.4720
L176.2190 71.7550
" />
<path d="M176.2590 69.6750
L176.2590 66.9410
" />
<path d="M176.2590 74.4890
L176.2590 71.7550
" />
<path d="M176.2990 69.6750
L176.2990 66.9250
" />
<path d="M176.2990 74.5050
L176.2990 71.7550
" />
<path d="M176.3390 69.6750
L176.3390 66.9100
" />
<path d="M176.3390 74.5200
L176.3390 71.7550
" />
<path d="M176.3790 69.6750
L176.3790 66.8940
" />
<path d="M176.3790 74.5360
L176.3790 71.7550
" />
<path d="M176.4190 69.6750
L176.4190 66.8800
" />
<path d="M176.4190 74.5500
L176.4190 71.7550
" />
<path d="M176.4590 69.6750
L176.4590 66.8650
" />
<path d="M176.4590 74.5650
L176.4590 71.7550
" />
<path d="M176.4990 69.6750
L176.4990 66.8520
" />
<path d="M176.4990 74.5780
L176.4990 71.7550
" />
<path d="M176.5390 69.6750
L176.5390 66.8380
" />
<path d="M176.5390 74.5920
L176.5390 71.7550
" />
<path d="M176.5790 69.6750
L176.5790 66.8260
" />
<path d="M176.5790 74.6040
L176.5790 71.7550
" />
<path d="M176.6190 69.6750
L176.6190 66.8130
" />
<path d="M176.6190 74.6170
L176.6190 71.7550
" />
<path d="M176.6590 69.6750
L176.6590 66.8010
" />
<path d="M176.6590 74.6290
L176.6590 71.7550
" />
<path d="M176.6990 69.6750
L176.6990 66.7900
" />
<path d="M176.6990 74.6400
L176.6990 71.7550
" />
<path d="M176.7390 69.6750
L176.7390 66.7790
" />
<path d="M176.7390 74.6510
L176.7390 71.7550
" />
<path d="M176.7790 69.6750
L176.7790 66.7680
" />
<path d="M176.7790 74.6620
L176.7790 71.7550
" />
<path d="M176.8190 69.6750
L176.8190 66.7580
" />
<path d="M176.8190 74.6720
L176.8190 71.7550
" />
<path d="M176.8590 69.6750
L176.8590 66.7480
" />
<path d="M176.8590 74.6820
L176.8590 71.7550
" />
<path d="M176.8990 69.6750
L176.8990 66.7390
" />
<path d="M176.8990 74.6910
L176.8990 71.7550
" />
<path d="M176.9390 69.6750
L176.9390 66.7300
" />
<path d="M176.9390 74.7000
L176.9390 71.7550
" />
<path d="M176.9790 69.6750
L176.9790 66.7210
" />
<path d="M176.9790 74.7090
L176.9790 71.7550
" />
<path d="M177.0190 69.6750
L177.0190 66.7130
" />
<path d="M177.0190 74.7170
L177.0190 71.7550
" />
<path d="M177.0590 69.6750
L177.0590 66.7050
" />
<path d="M177.0590 74.7250
L177.0590 71.7550
" />
<path d="M177.0990 69.6750
L177.0990 66.6980
" />
<path d="M177.0990 74.7320
L177.0990 71.7550
" />
<path d="M177.1400 69.6750
L177.1400 66.6910
" />
<path d="M177.1400 74.7390
L177.1400 71.7550
" />
<path d="M177.1800 69.6750
L177.1800 66.6850
" />
<path d="M177.1800 74.7450
L177.1800 71.7550
" />
<path d="M177.2200 69.6750
L177.2200 66.6780
" />
<path d="M177.2200 74.7520
L177.2200 71.7550
" />
<path d="M177.2600 69.6750
L177.2600 66.6730
" />
<path d="M177.2600 74.7570
L177.2600 71.7550
" />
<path d="M177.3000 69.6750
L177.3000 66.6670
" />
<path d="M177.3000 74.7630
L177.3000 71.7550
" />
<path d="M177.3400 69.6750
L177.3400 66.6630
" />
<path d="M177.3400 74.7670
L177.3400 71.7550
" />
<path d="M177.3800 69.6750
L177.3800 66.6580
" />
<path d="M177.3800 74.7720
L177.3800 71.7550
" />
<path d="M177.4200 69.6750
L177.4200 66.6540
" />
<path d="M177.4200 74.7760
L177.4200 71.7550
" />
<path d="M177.4600 69.6750
L177.4600 66.6500
" />
<path d="M177.4600 74.7800
L177.4600 71.7550
" />
<path d="M177.5000 69.6750
L177.5000 66.6470
" />
<path d="M177.5000 74.7830
L177.5000 71.7550
" />
<path d="M177.5400 69.6750
L177.5400 66.6440
" />
<path d="M177.5400 74.7860
L177.5400 71.7550
" />
<path d="M177.5800 69.6750
L177.5800 66.6410
" />
<path d="M177.5800 74.7890
L177.5800 71.7550
" />
<path d="M177.6200 74.7910
L177.6200 66.6390
" />
<path d="M177.6600 74.7920
L177.6600 66.6380
" />
<path d="M177.7000 74.7940
L177.7000 66.6360
" />
<path d="M177.7400 74.7950
L177.7400 66.6350
" />
<path d="M177.7800 74.7950
L177.7800 66.6350
" />
<path d="M177.8200 74.7950
L177.8200 66.6350
" />
<path d="M181.4297 68.4000
L182.2297 68.4000
" />
<path d="M181.8297 68.8000
L181.8297 68.0000
" />
<circle cx="177.8200" cy="70.7150" r="4.1200" /> 
</g>
<g style="fill:#FFFFFF; fill-opacity:1.0000; stroke:none;">
<circle cx="191.1350" cy="110.3100" r="0.3500" /> 
</g>
<g style="fill:#FFFFFF; fill-opacity:1.0000; stroke:none;">
<circle cx="186.0550" cy="110.3100" r="0.3500" /> 
</g>
<g style="fill:#FFFFFF; fill-opacity:1.0000; stroke:none;">
<circle cx="187.0710" cy="105.2590" r="0.4000" /> 
</g>
<g style="fill:#FFFFFF; fill-opacity:1.0000; stroke:none;">
<circle cx="184.5710" cy="105.2590" r="0.4000" /> 
</g>
<g style="fill:#FFFFFF; fill-opacity:1.0000; stroke:none;">
<circle cx="165.9890" cy="86.9456" r="0.3500" /> 
</g>
<g style="fill:#FFFFFF; fill-opacity:1.0000; stroke:none;">
<circle cx="165.9890" cy="81.8656" r="0.3500" /> 
</g>
<g style="fill:#FFFFFF; fill-opacity:1.0000; stroke:none;">
<circle cx="190.8810" cy="117.6760" r="0.3500" /> 
</g>
<g style="fill:#FFFFFF; fill-opacity:1.0000; stroke:none;">
<circle cx="190.8810" cy="112.5960" r="0.3500" /> 
</g>
<g style="fill:#FFFFFF; fill-opacity:1.0000; stroke:none;">
<circle cx="169.0370" cy="94.5910" r="0.4500" /> 
</g>
<g style="fill:#FFFFFF; fill-opacity:1.0000; stroke:none;">
<circle cx="169.0370" cy="92.0510" r="0.4500" /> 
</g>
<g style="fill:#FFFFFF; fill-opacity:1.0000; stroke:none;">
<circle cx="171.5770" cy="94.5910" r="0.4500" /> 
</g>
<g style="fill:#FFFFFF; fill-opacity:1.0000; stroke:none;">
<circle cx="171.5770" cy="92.0510" r="0.4500" /> 
</g>
<g style="fill:#FFFFFF; fill-opacity:1.0000; stroke:none;">
<circle cx="174.1170" cy="94.5910" r="0.4500" /> 
</g>
<g style="fill:#FFFFFF; fill-opacity:1.0000; stroke:none;">
<circle cx="174.1170" cy="92.0510" r="0.4500" /> 
</g>
<g style="fill:#FFFFFF; fill-opacity:1.0000; stroke:none;">
<circle cx="176.6570" cy="94.5910" r="0.4500" /> 
</g>
<g style="fill:#FFFFFF; fill-opacity:1.0000; stroke:none;">
<circle cx="176.6570" cy="92.0510" r="0.4500" /> 
</g>
<g style="fill:#FFFFFF; fill-opacity:1.0000; stroke:none;">
<circle cx="179.1970" cy="94.5910" r="0.4500" /> 
</g>
<g style="fill:#FFFFFF; fill-opacity:1.0000; stroke:none;">
<circle cx="179.1970" cy="92.0510" r="0.4500" /> 
</g>
<g style="fill:#FFFFFF; fill-opacity:1.0000; stroke:none;">
<circle cx="181.7370" cy="94.5910" r="0.4500" /> 
</g>
<g style="fill:#FFFFFF; fill-opacity:1.0000; stroke:none;">
<circle cx="181.7370" cy="92.0510" r="0.4500" /> 
</g>
<g style="fill:#FFFFFF; fill-opacity:1.0000; stroke:none;">
<circle cx="184.2770" cy="94.5910" r="0.4500" /> 
</g>
<g style="fill:#FFFFFF; fill-opacity:1.0000; stroke:none;">
<circle cx="184.2770" cy="92.0510" r="0.4500" /> 
</g>
<g style="fill:#FFFFFF; fill-opacity:1.0000; stroke:none;">
<circle cx="186.8170" cy="94.5910" r="0.4500" /> 
</g>
<g style="fill:#FFFFFF; fill-opacity:1.0000; stroke:none;">
<circle cx="186.8170" cy="92.0510" r="0.4500" /> 
</g>
<g style="fill:#FFFFFF; fill-opacity:1.0000; stroke:none;">
<circle cx="182.2450" cy="105.2590" r="0.4000" /> 
</g>
<g style="fill:#FFFFFF; fill-opacity:1.0000; stroke:none;">
<circle cx="179.7450" cy="105.2590" r="0.4000" /> 
</g>
<g style="fill:#FFFFFF; fill-opacity:1.0000; stroke:none;">
<circle cx="189.8650" cy="59.0890" r="0.3500" /> 
</g>
<g style="fill:#FFFFFF; fill-opacity:1.0000; stroke:none;">
<circle cx="189.8650" cy="54.0090" r="0.3500" /> 
</g>
<g style="fill:#FFFFFF; fill-opacity:1.0000; stroke:none;">
<circle cx="177.7600" cy="110.3100" r="0.4000" /> 
</g>
<g style="fill:#FFFFFF; fill-opacity:1.0000; stroke:none;">
<circle cx="175.2600" cy="110.3100" r="0.4000" /> 
</g>
<g style="fill:#FFFFFF; fill-opacity:1.0000; stroke:none;">
<circle cx="170.8120" cy="124.4100" r="0.8000" /> 
</g>
<g style="fill:#FFFFFF; fill-opacity:1.0000; stroke:none;">
<circle cx="170.8120" cy="113.0100" r="0.8000" /> 
</g>
<g style="fill:#FFFFFF; fill-opacity:1.0000; stroke:none;">
<circle cx="170.8120" cy="121.3100" r="0.8000" /> 
</g>
<g style="fill:#FFFFFF; fill-opacity:1.0000; stroke:none;">
<circle cx="167.6400" cy="110.3100" r="0.4000" /> 
</g>
<g style="fill:#FFFFFF; fill-opacity:1.0000; stroke:none;">
<circle cx="165.1400" cy="110.3100" r="0.4000" /> 
</g>
<g style="fill:#FFFFFF; fill-opacity:1.0000; stroke:none;">
<circle cx="174.8790" cy="84.4420" r="0.4000" /> 
</g>
<g style="fill:#FFFFFF; fill-opacity:1.0000; stroke:none;">
<circle cx="174.8790" cy="86.9420" r="0.4000" /> 
</g>
<g style="fill:#FFFFFF; fill-opacity:1.0000; stroke:none;">
<circle cx="176.5300" cy="125.4520" r="0.3500" /> 
</g>
<g style="fill:#FFFFFF; fill-opacity:1.0000; stroke:none;">
<circle cx="176.5300" cy="120.3720" r="0.3500" /> 
</g>
<g style="fill:#FFFFFF; fill-opacity:1.0000; stroke:none;">
<circle cx="189.8650" cy="86.4230" r="0.4000" /> 
</g>
<g style="fill:#FFFFFF; fill-opacity:1.0000; stroke:none;">
<circle cx="189.8650" cy="83.9230" r="0.4000" /> 
</g>
<g style="fill:#FFFFFF; fill-opacity:1.0000; stroke:none;">
<circle cx="176.5300" cy="112.8500" r="0.3500" /> 
</g>
<g style="fill:#FFFFFF; fill-opacity:1.0000; stroke:none;">
<circle cx="176.5300" cy="117.9300" r="0.3500" /> 
</g>
<g style="fill:#FFFFFF; fill-opacity:1.0000; stroke:none;">
<circle cx="165.9890" cy="66.5440" r="0.4000" /> 
</g>
<g style="fill:#FFFFFF; fill-opacity:1.0000; stroke:none;">
<circle cx="165.9890" cy="69.0440" r="0.4000" /> 
</g>
<g style="fill:#FFFFFF; fill-opacity:1.0000; stroke:none;">
<circle cx="189.8650" cy="61.5310" r="0.3500" /> 
</g>
<g style="fill:#FFFFFF; fill-opacity:1.0000; stroke:none;">
<circle cx="189.8650" cy="66.6110" r="0.3500" /> 
</g>
<g style="fill:#FFFFFF; fill-opacity:1.0000; stroke:none;">
<circle cx="165.9890" cy="63.7300" r="0.3500" /> 
</g>
<g style="fill:#FFFFFF; fill-opacity:1.0000; stroke:none;">
<circle cx="165.9890" cy="58.6500" r="0.3500" /> 
</g>
<g style="fill:#FFFFFF; fill-opacity:1.0000; stroke:none;">
<circle cx="176.5300" cy="135.4850" r="0.3500" /> 
</g>
<g style="fill:#FFFFFF; fill-opacity:1.0000; stroke:none;">
<circle cx="176.5300" cy="140.5650" r="0.3500" /> 
</g>
<g style="fill:#FFFFFF; fill-opacity:1.0000; stroke:none;">
<circle cx="179.0700" cy="122.8720" r="0.4000" /> 
</g>
<g style="fill:#FFFFFF; fill-opacity:1.0000; stroke:none;">
<circle cx="179.0700" cy="120.3720" r="0.4000" /> 
</g>
<g style="fill:#FFFFFF; fill-opacity:1.0000; stroke:none;">
<circle cx="169.5420" cy="102.6900" r="0.4500" /> 
</g>
<g style="fill:#FFFFFF; fill-opacity:1.0000; stroke:none;">
<circle cx="172.0820" cy="102.6900" r="0.4500" /> 
</g>
<g style="fill:#FFFFFF; fill-opacity:1.0000; stroke:none;">
<circle cx="170.8150" cy="139.6500" r="0.8000" /> 
</g>
<g style="fill:#FFFFFF; fill-opacity:1.0000; stroke:none;">
<circle cx="170.8150" cy="128.2500" r="0.8000" /> 
</g>
<g style="fill:#FFFFFF; fill-opacity:1.0000; stroke:none;">
<circle cx="170.8150" cy="136.5500" r="0.8000" /> 
</g>
<g style="fill:#FFFFFF; fill-opacity:1.0000; stroke:none;">
<circle cx="182.8600" cy="110.3100" r="0.4000" /> 
</g>
<g style="fill:#FFFFFF; fill-opacity:1.0000; stroke:none;">
<circle cx="180.3600" cy="110.3100" r="0.4000" /> 
</g>
<g style="fill:#FFFFFF; fill-opacity:1.0000; stroke:none;">
<circle cx="180.3400" cy="40.2350" r="0.3500" /> 
</g>
<g style="fill:#FFFFFF; fill-opacity:1.0000; stroke:none;">
<circle cx="175.2600" cy="40.2350" r="0.3500" /> 
</g>
<g style="fill:#FFFFFF; fill-opacity:1.0000; stroke:none;">
<circle cx="184.7850" cy="139.6500" r="0.8000" /> 
</g>
<g style="fill:#FFFFFF; fill-opacity:1.0000; stroke:none;">
<circle cx="184.7850" cy="128.2500" r="0.8000" /> 
</g>
<g style="fill:#FFFFFF; fill-opacity:1.0000; stroke:none;">
<circle cx="184.7850" cy="136.5500" r="0.8000" /> 
</g>
<g style="fill:#FFFFFF; fill-opacity:1.0000; stroke:none;">
<circle cx="184.7850" cy="124.4100" r="0.8000" /> 
</g>
<g style="fill:#FFFFFF; fill-opacity:1.0000; stroke:none;">
<circle cx="184.7850" cy="113.0100" r="0.8000" /> 
</g>
<g style="fill:#FFFFFF; fill-opacity:1.0000; stroke:none;">
<circle cx="184.7850" cy="121.3100" r="0.8000" /> 
</g>
<g style="fill:#FFFFFF; fill-opacity:1.0000; stroke:none;">
<circle cx="189.8650" cy="43.9180" r="0.3500" /> 
</g>
<g style="fill:#FFFFFF; fill-opacity:1.0000; stroke:none;">
<circle cx="189.8650" cy="38.8380" r="0.3500" /> 
</g>
<g style="fill:#FFFFFF; fill-opacity:1.0000; stroke:none;">
<circle cx="189.8650" cy="76.5570" r="0.3500" /> 
</g>
<g style="fill:#FFFFFF; fill-opacity:1.0000; stroke:none;">
<circle cx="189.8650" cy="81.6370" r="0.3500" /> 
</g>
<g style="fill:#FFFFFF; fill-opacity:1.0000; stroke:none;">
<circle cx="179.0700" cy="128.1190" r="0.3500" /> 
</g>
<g style="fill:#FFFFFF; fill-opacity:1.0000; stroke:none;">
<circle cx="179.0700" cy="133.1990" r="0.3500" /> 
</g>
<g style="fill:#FFFFFF; fill-opacity:1.0000; stroke:none;">
<circle cx="165.9890" cy="55.8560" r="0.3500" /> 
</g>
<g style="fill:#FFFFFF; fill-opacity:1.0000; stroke:none;">
<circle cx="165.9890" cy="50.7760" r="0.3500" /> 
</g>
<g style="fill:#FFFFFF; fill-opacity:1.0000; stroke:none;">
<circle cx="175.2600" cy="82.1450" r="0.4445" /> 
</g>
<g style="fill:#FFFFFF; fill-opacity:1.0000; stroke:none;">
<circle cx="177.8000" cy="82.1450" r="0.4445" /> 
</g>
<g style="fill:#FFFFFF; fill-opacity:1.0000; stroke:none;">
<circle cx="180.3400" cy="82.1450" r="0.4445" /> 
</g>
<g style="fill:#FFFFFF; fill-opacity:1.0000; stroke:none;">
<circle cx="173.4058" cy="75.1346" r="1.0287" /> 
</g>
<g style="fill:#FFFFFF; fill-opacity:1.0000; stroke:none;">
<circle cx="182.1942" cy="75.1346" r="1.0287" /> 
</g>
<g style="fill:#FFFFFF; fill-opacity:1.0000; stroke:none;">
<circle cx="172.7200" cy="110.3100" r="0.4000" /> 
</g>
<g style="fill:#FFFFFF; fill-opacity:1.0000; stroke:none;">
<circle cx="170.2200" cy="110.3100" r="0.4000" /> 
</g>
<g style="fill:#FFFFFF; fill-opacity:1.0000; stroke:none;">
<circle cx="175.2602" cy="54.2050" r="0.4445" /> 
</g>
<g style="fill:#FFFFFF; fill-opacity:1.0000; stroke:none;">
<circle cx="177.8002" cy="54.2050" r="0.4445" /> 
</g>
<g style="fill:#FFFFFF; fill-opacity:1.0000; stroke:none;">
<circle cx="180.3402" cy="54.2050" r="0.4445" /> 
</g>
<g style="fill:#FFFFFF; fill-opacity:1.0000; stroke:none;">
<circle cx="173.4060" cy="47.1946" r="1.0287" /> 
</g>
<g style="fill:#FFFFFF; fill-opacity:1.0000; stroke:none;">
<circle cx="182.1944" cy="47.1946" r="1.0287" /> 
</g>
<g style="fill:#FFFFFF; fill-opacity:1.0000; stroke:none;">
<circle cx="189.8650" cy="69.0240" r="0.3500" /> 
</g>
<g style="fill:#FFFFFF; fill-opacity:1.0000; stroke:none;">
<circle cx="189.8650" cy="74.1040" r="0.3500" /> 
</g>
<g style="fill:#FFFFFF; fill-opacity:1.0000; stroke:none;">
<circle cx="179.0700" cy="112.8500" r="0.3500" /> 
</g>
<g style="fill:#FFFFFF; fill-opacity:1.0000; stroke:none;">
<circle cx="179.0700" cy="117.9300" r="0.3500" /> 
</g>
<g style="fill:#FFFFFF; fill-opacity:1.0000; stroke:none;">
<circle cx="190.8810" cy="122.5020" r="0.4000" /> 
</g>
<g style="fill:#FFFFFF; fill-opacity:1.0000; stroke:none;">
<circle cx="190.8810" cy="120.0020" r="0.4000" /> 
</g>
<g style="fill:#FFFFFF; fill-opacity:1.0000; stroke:none;">
<circle cx="177.0380" cy="86.9710" r="0.4000" /> 
</g>
<g style="fill:#FFFFFF; fill-opacity:1.0000; stroke:none;">
<circle cx="177.0380" cy="84.4710" r="0.4000" /> 
</g>
<g style="fill:#FFFFFF; fill-opacity:1.0000; stroke:none;">
<circle cx="165.1000" cy="112.6250" r="0.3500" /> 
</g>
<g style="fill:#FFFFFF; fill-opacity:1.0000; stroke:none;">
<circle cx="165.1000" cy="117.7050" r="0.3500" /> 
</g>
<g style="fill:#FFFFFF; fill-opacity:1.0000; stroke:none;">
<circle cx="172.7200" cy="84.4420" r="0.4000" /> 
</g>
<g style="fill:#FFFFFF; fill-opacity:1.0000; stroke:none;">
<circle cx="172.7200" cy="86.9420" r="0.4000" /> 
</g>
<g style="fill:#FFFFFF; fill-opacity:1.0000; stroke:none;">
<circle cx="165.9890" cy="79.1224" r="0.4000" /> 
</g>
<g style="fill:#FFFFFF; fill-opacity:1.0000; stroke:none;">
<circle cx="165.9890" cy="76.6224" r="0.4000" /> 
</g>
<g style="fill:#FFFFFF; fill-opacity:1.0000; stroke:none;">
<circle cx="176.5300" cy="133.1990" r="0.3500" /> 
</g>
<g style="fill:#FFFFFF; fill-opacity:1.0000; stroke:none;">
<circle cx="176.5300" cy="128.1190" r="0.3500" /> 
</g>
<g style="fill:#FFFFFF; fill-opacity:1.0000; stroke:none;">
<circle cx="179.0700" cy="135.4850" r="0.4000" /> 
</g>
<g style="fill:#FFFFFF; fill-opacity:1.0000; stroke:none;">
<circle cx="179.0700" cy="137.9850" r="0.4000" /> 
</g>
<g style="fill:#FFFFFF; fill-opacity:1.0000; stroke:none;">
<circle cx="176.5300" cy="64.6190" r="0.3500" /> 
</g>
<g style="fill:#FFFFFF; fill-opacity:1.0000; stroke:none;">
<circle cx="176.5300" cy="59.5390" r="0.3500" /> 
</g>
<g style="fill:none; 
stroke:#FFFFFF; stroke-width:1.2000; stroke-opacity:1; 
stroke-linecap:round; stroke-linejoin:round;">
<path d="M184.7850 102.2400
L184.7850 103.1400
" />
<path d="M182.2450 102.2400
L182.2450 103.1400
" />
<path d="M187.3250 102.2400
L187.3250 103.1400
" />
</g>
<g style="fill:#FFFFFF; fill-opacity:1.0000; stroke:none;">
<circle cx="189.8650" cy="46.4870" r="0.3500" /> 
</g>
<g style="fill:#FFFFFF; fill-opacity:1.0000; stroke:none;">
<circle cx="189.8650" cy="51.5670" r="0.3500" /> 
</g>
<g style="fill:#FFFFFF; fill-opacity:1.0000; stroke:none;">
<circle cx="181.6100" cy="56.9700" r="0.4000" /> 
</g>
<g style="fill:#FFFFFF; fill-opacity:1.0000; stroke:none;">
<circle cx="181.6100" cy="59.5100" r="0.4000" /> 
</g>
<g style="fill:#FFFFFF; fill-opacity:1.0000; stroke:none;">
<circle cx="181.6100" cy="62.0500" r="0.4000" /> 
</g>
<g style="fill:#FFFFFF; fill-opacity:1.0000; stroke:none;">
<circle cx="181.6100" cy="64.5900" r="0.4000" /> 
</g>
<g style="fill:#FFFFFF; fill-opacity:1.0000; stroke:none;">
<circle cx="173.9900" cy="64.5900" r="0.4000" /> 
</g>
<g style="fill:#FFFFFF; fill-opacity:1.0000; stroke:none;">
<circle cx="173.9900" cy="62.0500" r="0.4000" /> 
</g>
<g style="fill:#FFFFFF; fill-opacity:1.0000; stroke:none;">
<circle cx="173.9900" cy="59.5100" r="0.4000" /> 
</g>
<g style="fill:#FFFFFF; fill-opacity:1.0000; stroke:none;">
<circle cx="173.9900" cy="56.9700" r="0.4000" /> 
</g>
<g style="fill:#FFFFFF; fill-opacity:1.0000; stroke:none;">
<circle cx="190.5000" cy="107.5450" r="0.4000" /> 
</g>
<g style="fill:#FFFFFF; fill-opacity:1.0000; stroke:none;">
<circle cx="187.9600" cy="107.5450" r="0.4000" /> 
</g>
<g style="fill:#FFFFFF; fill-opacity:1.0000; stroke:none;">
<circle cx="185.4200" cy="107.5450" r="0.4000" /> 
</g>
<g style="fill:#FFFFFF; fill-opacity:1.0000; stroke:none;">
<circle cx="182.8800" cy="107.5450" r="0.4000" /> 
</g>
<g style="fill:#FFFFFF; fill-opacity:1.0000; stroke:none;">
<circle cx="180.3400" cy="107.5450" r="0.4000" /> 
</g>
<g style="fill:#FFFFFF; fill-opacity:1.0000; stroke:none;">
<circle cx="177.8000" cy="107.5450" r="0.4000" /> 
</g>
<g style="fill:#FFFFFF; fill-opacity:1.0000; stroke:none;">
<circle cx="175.2600" cy="107.5450" r="0.4000" /> 
</g>
<g style="fill:#FFFFFF; fill-opacity:1.0000; stroke:none;">
<circle cx="175.2600" cy="99.9250" r="0.4000" /> 
</g>
<g style="fill:#FFFFFF; fill-opacity:1.0000; stroke:none;">
<circle cx="177.8000" cy="99.9250" r="0.4000" /> 
</g>
<g style="fill:#FFFFFF; fill-opacity:1.0000; stroke:none;">
<circle cx="180.3400" cy="99.9250" r="0.4000" /> 
</g>
<g style="fill:#FFFFFF; fill-opacity:1.0000; stroke:none;">
<circle cx="182.8800" cy="99.9250" r="0.4000" /> 
</g>
<g style="fill:#FFFFFF; fill-opacity:1.0000; stroke:none;">
<circle cx="185.4200" cy="99.9250" r="0.4000" /> 
</g>
<g style="fill:#FFFFFF; fill-opacity:1.0000; stroke:none;">
<circle cx="187.9600" cy="99.9250" r="0.4000" /> 
</g>
<g style="fill:#FFFFFF; fill-opacity:1.0000; stroke:none;">
<circle cx="190.5000" cy="99.9250" r="0.4000" /> 
</g>
<g style="fill:#FFFFFF; fill-opacity:1.0000; stroke:none;">
<circle cx="185.4200" cy="38.5550" r="0.5500" /> 
</g>
<g style="fill:#FFFFFF; fill-opacity:1.0000; stroke:none;">
<circle cx="185.4200" cy="41.0950" r="0.5500" /> 
</g>
<g style="fill:#FFFFFF; fill-opacity:1.0000; stroke:none;">
<circle cx="185.4200" cy="43.6350" r="0.5500" /> 
</g>
<g style="fill:#FFFFFF; fill-opacity:1.0000; stroke:none;">
<circle cx="185.4200" cy="46.1750" r="0.5500" /> 
</g>
<g style="fill:#FFFFFF; fill-opacity:1.0000; stroke:none;">
<circle cx="185.4200" cy="48.7150" r="0.5500" /> 
</g>
<g style="fill:#FFFFFF; fill-opacity:1.0000; stroke:none;">
<circle cx="185.4200" cy="51.2550" r="0.5500" /> 
</g>
<g style="fill:#FFFFFF; fill-opacity:1.0000; stroke:none;">
<circle cx="185.4200" cy="53.7950" r="0.5500" /> 
</g>
<g style="fill:#FFFFFF; fill-opacity:1.0000; stroke:none;">
<circle cx="185.4200" cy="56.3350" r="0.5500" /> 
</g>
<g style="fill:#FFFFFF; fill-opacity:1.0000; stroke:none;">
<circle cx="185.4200" cy="58.8750" r="0.5500" /> 
</g>
<g style="fill:#FFFFFF; fill-opacity:1.0000; stroke:none;">
<circle cx="185.4200" cy="61.4150" r="0.5500" /> 
</g>
<g style="fill:#FFFFFF; fill-opacity:1.0000; stroke:none;">
<circle cx="185.4200" cy="63.9550" r="0.5500" /> 
</g>
<g style="fill:#FFFFFF; fill-opacity:1.0000; stroke:none;">
<circle cx="185.4200" cy="66.4950" r="0.5500" /> 
</g>
<g style="fill:#FFFFFF; fill-opacity:1.0000; stroke:none;">
<circle cx="185.4200" cy="69.0350" r="0.5500" /> 
</g>
<g style="fill:#FFFFFF; fill-opacity:1.0000; stroke:none;">
<circle cx="185.4200" cy="71.5750" r="0.5500" /> 
</g>
<g style="fill:#FFFFFF; fill-opacity:1.0000; stroke:none;">
<circle cx="185.4200" cy="74.1150" r="0.5500" /> 
</g>
<g style="fill:#FFFFFF; fill-opacity:1.0000; stroke:none;">
<circle cx="185.4200" cy="76.6550" r="0.5500" /> 
</g>
<g style="fill:#FFFFFF; fill-opacity:1.0000; stroke:none;">
<circle cx="185.4200" cy="79.1950" r="0.5500" /> 
</g>
<g style="fill:#FFFFFF; fill-opacity:1.0000; stroke:none;">
<circle cx="185.4200" cy="81.7350" r="0.5500" /> 
</g>
<g style="fill:#FFFFFF; fill-opacity:1.0000; stroke:none;">
<circle cx="185.4200" cy="84.2750" r="0.5500" /> 
</g>
<g style="fill:#FFFFFF; fill-opacity:1.0000; stroke:none;">
<circle cx="185.4200" cy="86.8150" r="0.5500" /> 
</g>
<g style="fill:#FFFFFF; fill-opacity:1.0000; stroke:none;">
<circle cx="170.1800" cy="86.8150" r="0.5500" /> 
</g>
<g style="fill:#FFFFFF; fill-opacity:1.0000; stroke:none;">
<circle cx="170.1800" cy="84.2750" r="0.5500" /> 
</g>
<g style="fill:#FFFFFF; fill-opacity:1.0000; stroke:none;">
<circle cx="170.1800" cy="81.7350" r="0.5500" /> 
</g>
<g style="fill:#FFFFFF; fill-opacity:1.0000; stroke:none;">
<circle cx="170.1800" cy="79.1950" r="0.5500" /> 
</g>
<g style="fill:#FFFFFF; fill-opacity:1.0000; stroke:none;">
<circle cx="170.1800" cy="76.6550" r="0.5500" /> 
</g>
<g style="fill:#FFFFFF; fill-opacity:1.0000; stroke:none;">
<circle cx="170.1800" cy="74.1150" r="0.5500" /> 
</g>
<g style="fill:#FFFFFF; fill-opacity:1.0000; stroke:none;">
<circle cx="170.1800" cy="71.5750" r="0.5500" /> 
</g>
<g style="fill:#FFFFFF; fill-opacity:1.0000; stroke:none;">
<circle cx="170.1800" cy="69.0350" r="0.5500" /> 
</g>
<g style="fill:#FFFFFF; fill-opacity:1.0000; stroke:none;">
<circle cx="170.1800" cy="66.4950" r="0.5500" /> 
</g>
<g style="fill:#FFFFFF; fill-opacity:1.0000; stroke:none;">
<circle cx="170.1800" cy="63.9550" r="0.5500" /> 
</g>
<g style="fill:#FFFFFF; fill-opacity:1.0000; stroke:none;">
<circle cx="170.1800" cy="61.4150" r="0.5500" /> 
</g>
<g style="fill:#FFFFFF; fill-opacity:1.0000; stroke:none;">
<circle cx="170.1800" cy="58.8750" r="0.5500" /> 
</g>
<g style="fill:#FFFFFF; fill-opacity:1.0000; stroke:none;">
<circle cx="170.1800" cy="56.3350" r="0.5500" /> 
</g>
<g style="fill:#FFFFFF; fill-opacity:1.0000; stroke:none;">
<circle cx="170.1800" cy="53.7950" r="0.5500" /> 
</g>
<g style="fill:#FFFFFF; fill-opacity:1.0000; stroke:none;">
<circle cx="170.1800" cy="51.2550" r="0.5500" /> 
</g>
<g style="fill:#FFFFFF; fill-opacity:1.0000; stroke:none;">
<circle cx="170.1800" cy="48.7150" r="0.5500" /> 
</g>
<g style="fill:#FFFFFF; fill-opacity:1.0000; stroke:none;">
<circle cx="170.1800" cy="46.1750" r="0.5500" /> 
</g>
<g style="fill:#FFFFFF; fill-opacity:1.0000; stroke:none;">
<circle cx="170.1800" cy="43.6350" r="0.5500" /> 
</g>
<g style="fill:#FFFFFF; fill-opacity:1.0000; stroke:none;">
<circle cx="170.1800" cy="41.0950" r="0.5500" /> 
</g>
<g style="fill:#FFFFFF; fill-opacity:1.0000; stroke:none;">
<circle cx="170.1800" cy="38.5550" r="0.5500" /> 
</g>
<g style="fill:#FFFFFF; fill-opacity:1.0000; stroke:none;">
<circle cx="179.0700" cy="70.7150" r="0.4000" /> 
</g>
<g style="fill:#FFFFFF; fill-opacity:1.0000; stroke:none;">
<circle cx="176.5700" cy="70.7150" r="0.4000" /> 
<path style="fill:none; 
stroke:#000000; stroke-width:0.0500; stroke-opacity:1; 
stroke-linecap:round; stroke-linejoin:round;fill:none"
d="M 163.3000,36.6500
192.3000,36.6500
192.3000,142.6500
163.3000,142.6500
Z" /> 
</g> 
</svg>
