<?xml version="1.0" encoding="UTF-8" standalone="no"?>
<svg
   version="1.1"
   width="297.0022mm"
   height="210.0072mm"
   viewBox="0.0000 0.0000 297.0022 210.0072"
   id="svg245"
   sodipodi:docname="DaisyDelayHardware_Panel-Edge_Cuts.svg"
   inkscape:version="1.3.2 (091e20e, 2023-11-25)"
   xmlns:inkscape="http://www.inkscape.org/namespaces/inkscape"
   xmlns:sodipodi="http://sodipodi.sourceforge.net/DTD/sodipodi-0.dtd"
   xmlns="http://www.w3.org/2000/svg"
   xmlns:svg="http://www.w3.org/2000/svg">
  <defs
     id="defs245" />
  <sodipodi:namedview
     id="namedview245"
     pagecolor="#ffffff"
     bordercolor="#000000"
     borderopacity="0.25"
     inkscape:showpageshadow="2"
     inkscape:pageopacity="0.0"
     inkscape:pagecheckerboard="0"
     inkscape:deskcolor="#d1d1d1"
     inkscape:document-units="mm"
     inkscape:zoom="1.8636506"
     inkscape:cx="543.02023"
     inkscape:cy="290.29046"
     inkscape:window-width="1920"
     inkscape:window-height="1016"
     inkscape:window-x="0"
     inkscape:window-y="0"
     inkscape:window-maximized="1"
     inkscape:current-layer="svg245" />
  <title
     id="title1">SVG Image created as DaisyDelayHardware_Panel-Edge_Cuts.svg date 2024/07/09 13:34:49 </title>
  <desc
     id="desc1">Image generated by PCBNEW </desc>
  <circle
     cx="134.22501"
     cy="102.69"
     r="3.2344999"
     id="circle9"
     style="fill:none;stroke:#000000;stroke-width:0.0212;stroke-linecap:round;stroke-linejoin:round;stroke-opacity:1" />
  <circle
     cx="120.257"
     cy="102.69"
     r="2.9844999"
     id="circle10"
     style="fill:none;stroke:#000000;stroke-width:0.0212;stroke-linecap:round;stroke-linejoin:round;stroke-opacity:1" />
  <circle
     cx="134.22501"
     cy="117.93"
     r="3.8099999"
     id="circle11"
     style="fill:none;stroke:#000000;stroke-width:0.0212;stroke-linecap:round;stroke-linejoin:round;stroke-opacity:1" />
  <circle
     cx="120.255"
     cy="133.17"
     r="3.8099999"
     id="circle12"
     style="fill:none;stroke:#000000;stroke-width:0.0212;stroke-linecap:round;stroke-linejoin:round;stroke-opacity:1" />
  <circle
     cx="120.252"
     cy="117.93"
     r="3.8099999"
     id="circle13"
     style="fill:none;stroke:#000000;stroke-width:0.0212;stroke-linecap:round;stroke-linejoin:round;stroke-opacity:1" />
  <circle
     cx="134.22501"
     cy="133.17"
     r="3.8099999"
     id="circle14"
     style="fill:none;stroke:#000000;stroke-width:0.0212;stroke-linecap:round;stroke-linejoin:round;stroke-opacity:1" />
  <circle
     cx="127.24"
     cy="46.810001"
     r="3.8099999"
     id="circle15"
     style="fill:none;stroke:#000000;stroke-width:0.0212;stroke-linecap:round;stroke-linejoin:round;stroke-opacity:1" />
  <circle
     cx="127.24"
     cy="74.75"
     r="3.8099999"
     id="circle16"
     style="fill:none;stroke:#000000;stroke-width:0.0212;stroke-linecap:round;stroke-linejoin:round;stroke-opacity:1" />
  <path
     style="fill:#000000;fill-opacity:1;fill-rule:evenodd;stroke:#000000;stroke-width:0.15;stroke-linecap:round;stroke-linejoin:round;stroke-opacity:1"
     d="m 112.0508,86.18 h 13.5044 v 2.9972 h -13.5044 z"
     id="path16" />
  <path
     style="fill:#000000;fill-opacity:1;fill-rule:evenodd;stroke:#000000;stroke-width:0.15;stroke-linecap:round;stroke-linejoin:round;stroke-opacity:1"
     d="m 138.049,124.153 h 3.9247 v 3.0767 h -3.9247 z"
     id="path17" />
  <path
     style="fill:#000000;fill-opacity:1;fill-rule:evenodd;stroke:#000000;stroke-width:0.15;stroke-linecap:round;stroke-linejoin:round;stroke-opacity:1"
     d="m 112,58.2908 h 13.5382 V 61.288 H 112 Z"
     id="path18" />
  <path
     style="fill:#000000;fill-opacity:1;fill-rule:evenodd;stroke:#000000;stroke-width:0.15;stroke-linecap:round;stroke-linejoin:round;stroke-opacity:1"
     d="m 112,61.2372 h 29.8704 v 0.2794 H 112 Z"
     id="path19" />
  <path
     style="fill:#000000;fill-opacity:1;fill-rule:evenodd;stroke:#000000;stroke-width:0.15;stroke-linecap:round;stroke-linejoin:round;stroke-opacity:1"
     d="m 123.811,88.72 h 5.715 v 0.4572 h -5.715 z"
     id="path20" />
  <path
     style="fill:#000000;fill-opacity:1;fill-rule:evenodd;stroke:#000000;stroke-width:0.15;stroke-linecap:round;stroke-linejoin:round;stroke-opacity:1"
     d="m 112,57.9606 h 29.8704 V 58.24 H 112 Z"
     id="path21" />
  <path
     style="fill:#000000;fill-opacity:1;fill-rule:evenodd;stroke:#000000;stroke-width:0.15;stroke-linecap:round;stroke-linejoin:round;stroke-opacity:1"
     d="m 112.0946,139.2074 h 29.8704 v 0.2794 h -29.8704 z"
     id="path22" />
  <path
     style="fill:#000000;fill-opacity:1;fill-rule:evenodd;stroke:#000000;stroke-width:0.15;stroke-linecap:round;stroke-linejoin:round;stroke-opacity:1"
     d="m 125.2842,58.2908 h 3.302 v 0.508 h -3.302 z"
     id="path23" />
  <path
     style="fill:#000000;fill-opacity:1;fill-rule:evenodd;stroke:#000000;stroke-width:0.15;stroke-linecap:round;stroke-linejoin:round;stroke-opacity:1"
     d="m 127.635,109.167 h 14.3248 v 0.4404 H 127.635 Z"
     id="path24" />
  <path
     style="fill:#000000;fill-opacity:1;fill-rule:evenodd;stroke:#000000;stroke-width:0.15;stroke-linecap:round;stroke-linejoin:round;stroke-opacity:1"
     d="m 112.1033,124.0928 h 4.9907 v 3.1082 h -4.9907 z"
     id="path25" />
  <path
     style="fill:#000000;fill-opacity:1;fill-rule:evenodd;stroke:#000000;stroke-width:0.15;stroke-linecap:round;stroke-linejoin:round;stroke-opacity:1"
     d="m 123.811,86.18 h 5.715 v 0.508 h -5.715 z"
     id="path26" />
  <path
     d="m 123.43,50.62 -1.0711,-1.528"
     id="path27"
     style="fill:none;stroke:#000000;stroke-width:0.1705;stroke-linecap:round;stroke-linejoin:round;stroke-opacity:1" />
  <circle
     cx="122.1099"
     cy="48.4575"
     r="0.085199997"
     id="circle27"
     style="fill:#000000;fill-opacity:1;stroke:none" />
  <circle
     cx="121.943"
     cy="47.7967"
     r="0.085199997"
     id="circle28"
     style="fill:#000000;fill-opacity:1;stroke:none" />
  <path
     d="m 121.8608,47.1202 0.2168,-1.8534"
     id="path28"
     style="fill:none;stroke:#000000;stroke-width:0.1705;stroke-linecap:round;stroke-linejoin:round;stroke-opacity:1" />
  <circle
     cx="122.3137"
     cy="44.627399"
     r="0.085199997"
     id="circle29"
     style="fill:#000000;fill-opacity:1;stroke:none" />
  <circle
     cx="122.6286"
     cy="44.022999"
     r="0.085199997"
     id="circle30"
     style="fill:#000000;fill-opacity:1;stroke:none" />
  <path
     d="m 123.0173,43.4632 1.3948,-1.2396"
     id="path30"
     style="fill:none;stroke:#000000;stroke-width:0.1705;stroke-linecap:round;stroke-linejoin:round;stroke-opacity:1" />
  <circle
     cx="125.0137"
     cy="41.903301"
     r="0.085199997"
     id="circle31"
     style="fill:#000000;fill-opacity:1;stroke:none" />
  <circle
     cx="125.6509"
     cy="41.661499"
     r="0.085199997"
     id="circle32"
     style="fill:#000000;fill-opacity:1;stroke:none" />
  <path
     d="m 126.3136,41.5021 1.866,0.0023"
     id="path32"
     style="fill:none;stroke:#000000;stroke-width:0.1705;stroke-linecap:round;stroke-linejoin:round;stroke-opacity:1" />
  <circle
     cx="128.8419"
     cy="41.665501"
     r="0.085199997"
     id="circle33"
     style="fill:#000000;fill-opacity:1;stroke:none" />
  <circle
     cx="129.4785"
     cy="41.908798"
     r="0.085199997"
     id="circle34"
     style="fill:#000000;fill-opacity:1;stroke:none" />
  <path
     d="m 130.0793,42.2306 1.3917,1.2431"
     id="path34"
     style="fill:none;stroke:#000000;stroke-width:0.1705;stroke-linecap:round;stroke-linejoin:round;stroke-opacity:1" />
  <circle
     cx="131.85831"
     cy="44.0345"
     r="0.085199997"
     id="circle35"
     style="fill:#000000;fill-opacity:1;stroke:none" />
  <circle
     cx="132.17171"
     cy="44.639702"
     r="0.085199997"
     id="circle36"
     style="fill:#000000;fill-opacity:1;stroke:none" />
  <path
     d="m 132.4063,45.2796 0.2121,1.854"
     id="path36"
     style="fill:none;stroke:#000000;stroke-width:0.1705;stroke-linecap:round;stroke-linejoin:round;stroke-opacity:1" />
  <circle
     cx="132.53461"
     cy="47.809898"
     r="0.085199997"
     id="circle37"
     style="fill:#000000;fill-opacity:1;stroke:none" />
  <circle
     cx="132.366"
     cy="48.470299"
     r="0.085199997"
     id="circle38"
     style="fill:#000000;fill-opacity:1;stroke:none" />
  <path
     d="M 132.1154,49.1041 131.05,50.62"
     id="path38"
     style="fill:none;stroke:#000000;stroke-width:0.1705;stroke-linecap:round;stroke-linejoin:round;stroke-opacity:1" />
  <path
     style="fill:#000000;fill-opacity:1;fill-rule:evenodd;stroke:#000000;stroke-width:0.15;stroke-linecap:round;stroke-linejoin:round;stroke-opacity:1"
     d="m 128.5387,86.0403 h 13.3825 v 3.3147 h -13.3825 z"
     id="path39" />
  <path
     style="fill:#000000;fill-opacity:1;fill-rule:evenodd;stroke:#000000;stroke-width:0.15;stroke-linecap:round;stroke-linejoin:round;stroke-opacity:1"
     d="m 114.9145,142.06 h 10.0748 v 0.381 h -10.0748 z"
     id="path40" />
  <path
     style="fill:#000000;fill-opacity:1;fill-rule:evenodd;stroke:#000000;stroke-width:0.15;stroke-linecap:round;stroke-linejoin:round;stroke-opacity:1"
     d="m 117.094,126.82 h 6.985 v 0.381 h -6.985 z"
     id="path41" />
  <path
     style="fill:#000000;fill-opacity:1;fill-rule:evenodd;stroke:#000000;stroke-width:0.15;stroke-linecap:round;stroke-linejoin:round;stroke-opacity:1"
     d="m 124.079,124.153 h 6.985 v 3.175 h -6.985 z"
     id="path42" />
  <path
     style="fill:#000000;fill-opacity:1;fill-rule:evenodd;stroke:#000000;stroke-width:0.15;stroke-linecap:round;stroke-linejoin:round;stroke-opacity:1"
     d="m 127.635,111.7325 h 14.2715 v 0.5397 H 127.635 Z"
     id="path43" />
  <path
     style="fill:#000000;fill-opacity:1;fill-rule:evenodd;stroke:#000000;stroke-width:0.15;stroke-linecap:round;stroke-linejoin:round;stroke-opacity:1"
     d="m 131.064,124.153 h 6.985 v 0.635 h -6.985 z"
     id="path44" />
  <path
     style="fill:#000000;fill-opacity:1;fill-rule:evenodd;stroke:#000000;stroke-width:0.15;stroke-linecap:round;stroke-linejoin:round;stroke-opacity:1"
     d="m 112.1033,127.2297 h 29.8704 v 0.2794 h -29.8704 z"
     id="path45" />
  <path
     style="fill:#000000;fill-opacity:1;fill-rule:evenodd;stroke:#000000;stroke-width:0.15;stroke-linecap:round;stroke-linejoin:round;stroke-opacity:1"
     d="m 112.1016,112.0494 h 29.8704 v 0.2794 h -29.8704 z"
     id="path46" />
  <path
     style="fill:#000000;fill-opacity:1;fill-rule:evenodd;stroke:#000000;stroke-width:0.15;stroke-linecap:round;stroke-linejoin:round;stroke-opacity:1"
     d="m 112.0508,89.1772 h 29.8704 v 0.2794 h -29.8704 z"
     id="path47" />
  <path
     style="fill:#000000;fill-opacity:1;fill-rule:evenodd;stroke:#000000;stroke-width:0.15;stroke-linecap:round;stroke-linejoin:round;stroke-opacity:1"
     d="m 128.4846,58.1511 h 13.3858 v 3.3147 h -13.3858 z"
     id="path48" />
  <path
     d="m 123.43,78.56 -1.0711,-1.528"
     id="path49"
     style="fill:none;stroke:#000000;stroke-width:0.1705;stroke-linecap:round;stroke-linejoin:round;stroke-opacity:1" />
  <circle
     cx="122.1099"
     cy="76.397499"
     r="0.085199997"
     id="circle49"
     style="fill:#000000;fill-opacity:1;stroke:none" />
  <circle
     cx="121.943"
     cy="75.736702"
     r="0.085199997"
     id="circle50"
     style="fill:#000000;fill-opacity:1;stroke:none" />
  <path
     d="m 121.8608,75.0602 0.2168,-1.8534"
     id="path50"
     style="fill:none;stroke:#000000;stroke-width:0.1705;stroke-linecap:round;stroke-linejoin:round;stroke-opacity:1" />
  <circle
     cx="122.3137"
     cy="72.567398"
     r="0.085199997"
     id="circle51"
     style="fill:#000000;fill-opacity:1;stroke:none" />
  <circle
     cx="122.6286"
     cy="71.962997"
     r="0.085199997"
     id="circle52"
     style="fill:#000000;fill-opacity:1;stroke:none" />
  <path
     d="m 123.0173,71.4032 1.3948,-1.2396"
     id="path52"
     style="fill:none;stroke:#000000;stroke-width:0.1705;stroke-linecap:round;stroke-linejoin:round;stroke-opacity:1" />
  <circle
     cx="125.0137"
     cy="69.8433"
     r="0.085199997"
     id="circle53"
     style="fill:#000000;fill-opacity:1;stroke:none" />
  <circle
     cx="125.6509"
     cy="69.601501"
     r="0.085199997"
     id="circle54"
     style="fill:#000000;fill-opacity:1;stroke:none" />
  <path
     d="m 126.3136,69.4421 1.866,0.0023"
     id="path54"
     style="fill:none;stroke:#000000;stroke-width:0.1705;stroke-linecap:round;stroke-linejoin:round;stroke-opacity:1" />
  <circle
     cx="128.8419"
     cy="69.605499"
     r="0.085199997"
     id="circle55"
     style="fill:#000000;fill-opacity:1;stroke:none" />
  <circle
     cx="129.4785"
     cy="69.848801"
     r="0.085199997"
     id="circle56"
     style="fill:#000000;fill-opacity:1;stroke:none" />
  <path
     d="m 130.0793,70.1706 1.3917,1.2431"
     id="path56"
     style="fill:none;stroke:#000000;stroke-width:0.1705;stroke-linecap:round;stroke-linejoin:round;stroke-opacity:1" />
  <circle
     cx="131.85831"
     cy="71.974503"
     r="0.085199997"
     id="circle57"
     style="fill:#000000;fill-opacity:1;stroke:none" />
  <circle
     cx="132.17171"
     cy="72.579697"
     r="0.085199997"
     id="circle58"
     style="fill:#000000;fill-opacity:1;stroke:none" />
  <path
     d="m 132.4063,73.2196 0.2121,1.854"
     id="path58"
     style="fill:none;stroke:#000000;stroke-width:0.1705;stroke-linecap:round;stroke-linejoin:round;stroke-opacity:1" />
  <circle
     cx="132.53461"
     cy="75.749901"
     r="0.085199997"
     id="circle59"
     style="fill:#000000;fill-opacity:1;stroke:none" />
  <circle
     cx="132.366"
     cy="76.410301"
     r="0.085199997"
     id="circle60"
     style="fill:#000000;fill-opacity:1;stroke:none" />
  <path
     d="M 132.1154,77.0441 131.05,78.56"
     id="path60"
     style="fill:none;stroke:#000000;stroke-width:0.1705;stroke-linecap:round;stroke-linejoin:round;stroke-opacity:1" />
  <path
     style="fill:#000000;fill-opacity:1;fill-rule:evenodd;stroke:#000000;stroke-width:0.15;stroke-linecap:round;stroke-linejoin:round;stroke-opacity:1"
     d="m 112.0946,139.4868 h 2.7447 v 2.9542 h -2.7447 z"
     id="path61" />
  <path
     style="fill:#000000;fill-opacity:1;fill-rule:evenodd;stroke:#000000;stroke-width:0.15;stroke-linecap:round;stroke-linejoin:round;stroke-opacity:1"
     d="m 117.094,124.0928 h 6.858 v 0.6952 h -6.858 z"
     id="path62" />
  <path
     style="fill:#000000;fill-opacity:1;fill-rule:evenodd;stroke:#000000;stroke-width:0.15;stroke-linecap:round;stroke-linejoin:round;stroke-opacity:1"
     d="m 112.0946,142.484 h 29.8704 v 0.2794 h -29.8704 z"
     id="path63" />
  <path
     style="fill:#000000;fill-opacity:1;fill-rule:evenodd;stroke:#000000;stroke-width:0.15;stroke-linecap:round;stroke-linejoin:round;stroke-opacity:1"
     d="m 125.5382,60.9353 h 3.048 v 0.3527 h -3.048 z"
     id="path64" />
  <path
     style="fill:#000000;fill-opacity:1;fill-rule:evenodd;stroke:#000000;stroke-width:0.15;stroke-linecap:round;stroke-linejoin:round;stroke-opacity:1"
     d="m 112.0508,85.9006 h 29.8704 V 86.18 h -29.8704 z"
     id="path65" />
  <path
     style="fill:#000000;fill-opacity:1;fill-rule:evenodd;stroke:#000000;stroke-width:0.15;stroke-linecap:round;stroke-linejoin:round;stroke-opacity:1"
     d="m 138.4495,109.6078 h 3.4658 v 2.2184 h -3.4658 z"
     id="path66" />
  <path
     style="fill:#000000;fill-opacity:1;fill-rule:evenodd;stroke:#000000;stroke-width:0.15;stroke-linecap:round;stroke-linejoin:round;stroke-opacity:1"
     d="m 131.064,126.8487 h 6.985 v 0.4793 h -6.985 z"
     id="path67" />
  <path
     style="fill:#000000;fill-opacity:1;fill-rule:evenodd;stroke:#000000;stroke-width:0.15;stroke-linecap:round;stroke-linejoin:round;stroke-opacity:1"
     d="m 127.635,109.675 h 2.7145 v 2.2184 h -2.7145 z"
     id="path68" />
  <path
     style="fill:#000000;fill-opacity:1;fill-rule:evenodd;stroke:#000000;stroke-width:0.15;stroke-linecap:round;stroke-linejoin:round;stroke-opacity:1"
     d="m 112.1033,123.9531 h 29.8704 v 0.2794 h -29.8704 z"
     id="path69" />
  <path
     style="fill:#000000;fill-opacity:1;fill-rule:evenodd;stroke:#000000;stroke-width:0.15;stroke-linecap:round;stroke-linejoin:round;stroke-opacity:1"
     d="m 114.9553,139.4868 h 9.9366 v 0.5412 h -9.9366 z"
     id="path70" />
  <path
     style="fill:#000000;fill-opacity:1;fill-rule:evenodd;stroke:#000000;stroke-width:0.15;stroke-linecap:round;stroke-linejoin:round;stroke-opacity:1"
     d="m 125.029,139.4868 h 2.0008 v 2.9972 h -2.0008 z"
     id="path71" />
  <path
     style="fill:#000000;fill-opacity:1;fill-rule:evenodd;stroke:#000000;stroke-width:0.15;stroke-linecap:round;stroke-linejoin:round;stroke-opacity:1"
     d="m 112.1016,108.7728 h 29.8468 v 0.2794 h -29.8468 z"
     id="path72" />
  <path
     style="fill:#000000;fill-opacity:1;fill-rule:evenodd;stroke:none;stroke-width:0.1705;stroke-linecap:round;stroke-linejoin:round;stroke-opacity:1"
     d="m 131.9867,125.2126 0.0387,0.037 0.0466,0.0899 0.002,0.1438 -0.0429,0.0892 -0.037,0.0387 -0.0894,0.0464 -0.3915,0.002 -9e-4,-0.4885 0.3845,-0.002 z"
     id="path73" />
  <path
     style="fill:#000000;fill-opacity:1;fill-rule:evenodd;stroke:none;stroke-width:0.1705;stroke-linecap:round;stroke-linejoin:round;stroke-opacity:1"
     d="m 138.0371,126.8384 h -6.9893 v -1.8167 h 0.1667 l 0.003,1.5293 0.0224,0.0541 0.0414,0.0414 0.054,0.0224 h 0.0586 l 0.054,-0.0224 0.0414,-0.0414 0.0224,-0.0541 0.003,-0.0293 v -0.0292 h 1.06 v 0.0585 l 0.009,0.0224 0.0131,0.0317 0.0414,0.0414 0.0317,0.0131 0.0224,0.009 0.0293,0.003 0.9578,-0.003 0.0541,-0.0224 0.0413,-0.0414 0.0224,-0.0541 v -0.0585 l -0.0224,-0.0541 -0.0413,-0.0414 -0.0541,-0.0224 -0.0293,-0.003 -0.5693,0.002 0.5854,-0.5882 0.005,-0.002 0.0152,-0.0175 0.0175,-0.0177 0.002,-0.005 0.004,-0.004 0.012,-0.0269 0.0152,-0.0474 h 1.4782 l 0.003,0.2064 -0.002,0.0152 0.003,0.018 1e-4,0.004 8e-4,0.002 8e-4,0.005 0.0712,0.2746 0.001,0.0143 0.008,0.0219 6e-4,0.003 7e-4,8e-4 8e-4,0.002 0.074,0.1425 0.007,0.0166 0.005,0.006 0.001,0.003 0.003,0.003 0.009,0.0115 0.1289,0.1258 10e-4,0.003 0.0143,0.0124 0.0209,0.0203 0.005,0.002 0.004,0.004 0.0269,0.012 0.2146,0.0689 0.0178,0.007 0.008,7e-4 0.003,10e-4 0.004,-3e-4 0.0148,0.001 0.1442,-0.002 0.0174,0.001 0.007,-0.002 h 0.003 l 0.004,-0.002 0.0145,-0.003 0.1926,-0.0666 h 0.004 l 0.018,-0.007 0.027,-0.009 0.004,-0.004 0.005,-0.002 0.0227,-0.0186 0.0901,-0.0942 0.0224,-0.054 v -0.0586 l -0.0224,-0.054 -0.0414,-0.0414 -0.0541,-0.0224 h -0.0585 l -0.0541,0.0224 -0.0227,0.0186 -0.044,0.046 -0.1539,0.0533 -0.0952,0.001 -0.1601,-0.0513 -0.1007,-0.0983 -0.0535,-0.1029 -0.0652,-0.2513 -0.002,-0.1782 0.0604,-0.2509 0.0538,-0.112 0.101,-0.1035 0.1553,-0.0538 0.0952,-0.002 0.1608,0.0516 0.0709,0.0679 0.0541,0.0224 h 0.0585 l 0.0541,-0.0224 0.0414,-0.0414 0.0224,-0.054 v -0.0586 l -0.0224,-0.054 -0.0187,-0.0228 -0.0188,-0.018 h 0.1925 l 0.007,0.0287 0.4968,1.4818 8e-4,0.0104 0.008,0.0166 0.006,0.018 0.007,0.008 0.005,0.01 0.0142,0.0123 0.0123,0.0142 0.01,0.005 0.008,0.007 0.0178,0.006 0.0168,0.008 0.0107,8e-4 0.0102,0.003 0.0187,-0.001 0.0188,0.001 0.0102,-0.003 0.0107,-8e-4 0.0168,-0.008 0.0178,-0.006 0.008,-0.007 0.01,-0.005 0.0123,-0.0142 0.0143,-0.0123 0.005,-0.01 0.007,-0.008 0.012,-0.0268 0.5065,-1.5287 -0.004,-0.0584 -0.0261,-0.0523 -0.0443,-0.0384 -0.0555,-0.0185 -0.0584,0.004 -0.0523,0.0261 -0.0384,0.0443 -0.0119,0.0268 -0.3571,1.0776 -0.3703,-1.1044 -0.0384,-0.0443 -0.0523,-0.0261 -0.0584,-0.004 -0.0555,0.0185 -0.0442,0.0384 -0.0262,0.0523 -0.004,0.0584 h -0.1925 l -0.0393,-0.0376 -8e-4,-0.002 -0.01,-0.009 -0.0252,-0.0241 -0.005,-0.002 -0.004,-0.003 -0.0268,-0.012 -0.2146,-0.0689 -0.0179,-0.007 -0.007,-7e-4 -0.003,-0.001 -0.004,3e-4 -0.0148,-10e-4 -0.1442,0.002 -0.0175,-0.001 -0.007,0.002 h -0.003 l -0.004,10e-4 -0.0145,0.003 -0.1926,0.0667 h -0.004 l -0.018,0.007 -0.0271,0.009 -0.004,0.003 -0.005,0.002 -0.0227,0.0186 -0.1411,0.1446 -0.0142,0.0124 -0.004,0.006 -0.002,0.002 -0.001,0.004 -0.008,0.0125 -0.0651,0.1355 -0.008,0.0104 -0.008,0.022 -0.001,0.002 -1e-4,0.001 -8e-4,0.002 -0.0669,0.278 -0.006,0.0148 -0.002,0.0182 -9e-4,0.004 3e-4,0.002 -5e-4,0.005 h -1.4782 l 0.0537,-0.1672 0.007,-0.0178 8e-4,-0.008 9e-4,-0.003 -2e-4,-0.004 10e-4,-0.0148 -0.002,-0.1215 8e-4,-0.003 -0.001,-0.0165 -6e-4,-0.0315 -0.002,-0.005 -4e-4,-0.005 -0.0105,-0.0274 -0.074,-0.1426 -0.007,-0.0165 -0.005,-0.006 -0.001,-0.003 -0.003,-0.003 -0.009,-0.0115 -0.0752,-0.0719 -0.0104,-0.0119 -0.006,-0.004 -0.002,-0.002 -0.004,-0.002 -0.0126,-0.008 -0.1245,-0.0599 -0.002,-0.002 -0.0161,-0.007 -0.0276,-0.0132 -0.005,-4e-4 -0.005,-0.002 -0.0293,-0.003 -0.3344,0.002 -0.004,-10e-4 -0.0211,10e-4 -0.0269,2e-4 -0.005,0.002 -0.005,4e-4 -0.0274,0.0105 -0.1426,0.074 -0.0165,0.007 -0.006,0.005 -0.003,10e-4 -0.003,0.003 -0.0115,0.009 -0.09,0.0942 -0.0224,0.054 v 0.0586 l 0.0224,0.054 0.0413,0.0414 0.0541,0.0224 h 0.0585 l 0.0541,-0.0224 0.0227,-0.0186 0.0504,-0.0527 0.0896,-0.0465 0.2863,-0.002 0.0899,0.0432 0.0386,0.037 0.0469,0.0902 0.001,0.0812 -0.0511,0.1594 -0.8541,0.858 -0.0131,0.0317 -0.009,0.0224 h -1.06 l -0.001,-0.5358 0.3994,-0.002 0.004,0.001 0.0222,-0.002 0.0258,-1e-4 0.005,-0.002 0.005,-4e-4 0.0274,-0.0105 0.1426,-0.074 0.0165,-0.007 0.006,-0.005 0.003,-0.001 0.003,-0.003 0.0115,-0.009 0.0719,-0.0752 0.0119,-0.0103 0.004,-0.006 0.002,-0.002 0.002,-0.004 0.008,-0.0126 0.0599,-0.1245 0.002,-0.002 0.007,-0.0161 0.0132,-0.0276 4e-4,-0.005 0.002,-0.005 0.003,-0.0293 -0.002,-0.1922 10e-4,-0.003 -10e-4,-0.0192 -3e-4,-0.0288 -0.002,-0.005 -4e-4,-0.005 -0.0105,-0.0274 -0.074,-0.1426 -0.007,-0.0165 -0.005,-0.006 -10e-4,-0.003 -0.003,-0.003 -0.009,-0.0115 -0.0752,-0.0719 -0.0103,-0.0119 -0.006,-0.004 -0.002,-0.002 -0.004,-0.002 -0.0126,-0.008 -0.1245,-0.0599 -0.002,-0.002 -0.0162,-0.007 -0.0275,-0.0132 -0.005,-4e-4 -0.005,-0.002 -0.0293,-0.003 -0.6007,0.003 -0.054,0.0224 -0.0414,0.0414 -0.0224,0.0541 -0.003,0.0292 h -0.1667 v -0.3166 h 6.9893 z"
     id="path74" />
  <text
     x="114.8809"
     y="147.4386"
     textLength="23.8039"
     font-size="3.3333px"
     lengthAdjust="spacingAndGlyphs"
     text-anchor="start"
     opacity="0"
     id="text74"
     style="fill:none;stroke:#000000;stroke-width:0.3;stroke-linecap:round;stroke-linejoin:round;stroke-opacity:1">SynthLab</text>
  <path
     style="fill:#000000;fill-opacity:1;fill-rule:evenodd;stroke:none;stroke-width:0.3;stroke-linecap:round;stroke-linejoin:round;stroke-opacity:1"
     d="m 118.9573,146.701 -0.0452,0.3126 h -4.0343 l 0.0452,-0.3126 h 2.393 l 0.149,-0.9379 h -1.1718 l -0.1297,-0.0141 -0.1181,-0.0468 -0.0367,-0.0246 -0.08,-0.0949 -0.0141,-0.1139 0.017,-0.1253 0.002,-0.0127 0.0188,-0.125 0.002,-0.013 0.051,-0.1184 0.0921,-0.0815 0.008,-0.005 0.1159,-0.0545 0.1274,-0.0268 0.0627,-0.003 h 2.0162 l -0.0446,0.3126 h -1.5955 l -0.0342,0.2345 h 1.1742 l 0.1295,0.014 0.1174,0.0464 0.0364,0.0244 0.08,0.0953 0.0153,0.116 -0.0204,0.1224 -0.0201,0.1223 -0.0199,0.1222 -0.0196,0.1222 -0.0191,0.1207 -0.0209,0.1323 -0.0205,0.1286 -0.0134,0.0837 z"
     id="path75" />
  <path
     style="fill:#000000;fill-opacity:1;fill-rule:evenodd;stroke:none;stroke-width:0.3;stroke-linecap:round;stroke-linejoin:round;stroke-opacity:1"
     d="m 119.0855,145.4505 h 0.8378 l -0.1973,1.2505 h 0.7596 l 0.1954,-1.2505 h 0.8359 l -0.1954,1.2505 h 0.7969 l -0.0452,0.3126 h -0.7974 l -0.0367,0.2369 -0.0527,0.1117 -0.1005,0.0813 -0.1147,0.0506 -0.1268,0.0248 -0.0626,0.003 h -0.0861 -0.3127 -1.6175 l 0.0446,-0.3126 h 1.5961 l 0.033,-0.1954 h -0.7754 -0.3982 l -0.1294,-0.0131 -0.1182,-0.0434 -0.0369,-0.0229 -0.0828,-0.0956 -0.0112,-0.1022 z"
     id="path76" />
  <path
     style="fill:#000000;fill-opacity:1;fill-rule:evenodd;stroke:none;stroke-width:0.3;stroke-linecap:round;stroke-linejoin:round;stroke-opacity:1"
     d="m 122.2582,145.4505 h 2.0108 l 0.1295,0.014 0.1174,0.0464 0.0364,0.0244 0.0795,0.0953 0.0151,0.116 -0.152,0.9544 h 0.7962 l -0.0452,0.3126 h -0.8139 -0.8195 l 0.1954,-1.2505 h -0.7577 l -0.1972,1.2505 h -0.836 l 0.1991,-1.2932 z"
     id="path77" />
  <path
     style="fill:#000000;fill-opacity:1;fill-rule:evenodd;stroke:none;stroke-width:0.3;stroke-linecap:round;stroke-linejoin:round;stroke-opacity:1"
     d="m 125.4706,145.1769 h 0.8384 l -0.0397,0.2345 h 0.7962 l -0.0452,0.3126 h -0.7974 l -0.1972,1.2762 h -0.836 l 0.1967,-1.2744 -0.2003,0.0135 0.0452,-0.3279 h 0.1996 z"
     id="path78" />
  <path
     style="fill:#000000;fill-opacity:1;fill-rule:evenodd;stroke:none;stroke-width:0.3;stroke-linecap:round;stroke-linejoin:round;stroke-opacity:1"
     d="m 127.0979,144.9424 h 0.8377 l -0.0793,0.5081 h 0.1396 0.1245 0.1266 0.1287 0.0558 0.1306 0.1307 0.1308 0.1309 0.0747 l 0.1296,0.014 0.1174,0.0464 0.0364,0.0244 0.0795,0.0953 0.0151,0.116 -0.152,0.9544 h 0.7962 l -0.0452,0.3126 h -0.1295 -0.1288 -0.1279 -0.1271 -0.1263 -0.1256 -0.0499 -0.1252 -0.1261 -0.1271 -0.1282 -0.1291 -0.1302 -0.0524 l 0.1954,-1.2505 h -0.7577 l -0.1973,1.2505 h -0.8359 z"
     id="path79" />
  <path
     style="fill:#000000;fill-opacity:1;fill-rule:evenodd;stroke:none;stroke-width:0.3;stroke-linecap:round;stroke-linejoin:round;stroke-opacity:1"
     d="m 130.2688,144.9424 h 0.8377 l -0.2766,1.7586 h 1.5955 l -0.0451,0.3126 h -2.0108 l -0.1294,-0.0131 -0.1182,-0.0434 -0.0369,-0.0229 -0.0828,-0.0956 -0.0113,-0.1022 z"
     id="path80" />
  <path
     style="fill:#000000;fill-opacity:1;fill-rule:evenodd;stroke:none;stroke-width:0.3;stroke-linecap:round;stroke-linejoin:round;stroke-opacity:1"
     d="m 134.7104,145.4645 0.1174,0.0464 0.0364,0.0244 0.0795,0.0953 0.0151,0.116 -0.152,0.9544 h 0.7962 l -0.0451,0.3126 h -3.2289 l 0.0476,-0.3126 h 0.8347 0.7571 l 0.0721,-0.4299 h -0.7572 l -0.072,0.4299 h -0.8347 l 0.072,-0.4726 0.0521,-0.1107 0.1012,-0.0811 0.1159,-0.0506 0.1274,-0.0248 0.0626,-0.003 h 1.1791 l 0.0324,-0.1954 h -1.5943 l 0.0445,-0.3126 h 2.0114 z"
     id="path81" />
  <path
     style="fill:#000000;fill-opacity:1;fill-rule:evenodd;stroke:none;stroke-width:0.3;stroke-linecap:round;stroke-linejoin:round;stroke-opacity:1"
     d="m 136.5806,145.4505 h 1.173 l 0.1295,0.014 0.1174,0.0464 0.0364,0.0244 0.0796,0.0953 0.0151,0.116 -0.146,0.9544 h 0.7969 l -0.0452,0.3126 h -3.2356 l 0.0484,-0.3126 h 0.8339 0.7572 l 0.1508,-0.9379 h -0.7572 l -0.1508,0.9379 h -0.8339 l 0.2721,-1.7586 h 0.8378 z"
     id="path82" />
  <path
     style="fill:#000000;fill-opacity:1;fill-rule:evenodd;stroke:none;stroke-width:0.3;stroke-linecap:round;stroke-linejoin:round;stroke-opacity:1"
     d="m 118.0167,125.2134 0.0387,0.037 0.0466,0.0899 0.002,0.1437 -0.0429,0.0893 -0.037,0.0387 -0.0894,0.0464 -0.3915,0.002 -9e-4,-0.4885 0.3845,-0.002 z"
     id="path83" />
  <path
     style="fill:#000000;fill-opacity:1;fill-rule:evenodd;stroke:none;stroke-width:0.3;stroke-linecap:round;stroke-linejoin:round;stroke-opacity:1"
     d="m 124.0671,126.8392 h -6.9893 v -1.8167 h 0.1667 l 0.003,1.5293 0.0224,0.0541 0.0414,0.0414 0.054,0.0224 h 0.0586 l 0.054,-0.0224 0.0414,-0.0414 0.0224,-0.0541 0.003,-0.0293 -0.001,-0.565 0.3994,-0.002 0.004,0.001 0.0222,-0.002 0.0258,-10e-5 0.005,-0.002 0.005,-4e-4 0.0274,-0.0105 0.1426,-0.074 0.0165,-0.007 0.006,-0.005 0.003,-0.002 0.003,-0.003 0.0115,-0.009 0.0719,-0.0752 0.0119,-0.0103 0.004,-0.006 0.002,-0.002 0.002,-0.004 0.008,-0.0126 0.0599,-0.1245 0.002,-0.002 0.007,-0.0161 0.0132,-0.0276 4e-4,-0.005 0.002,-0.005 0.003,-0.0293 -0.001,-0.0902 h 0.2737 l 0.004,0.0584 0.0262,0.0524 0.0442,0.0383 0.0555,0.0185 0.0584,-0.004 0.0275,-0.0105 0.1425,-0.074 0.0166,-0.007 0.006,-0.005 0.003,-0.002 0.003,-0.003 0.0115,-0.01 0.0305,-0.0312 0.002,0.9199 -0.3104,0.001 -0.0541,0.0224 -0.0413,0.0414 -0.0224,0.0541 v 0.0585 l 0.0224,0.0541 0.0413,0.0414 0.0541,0.0224 0.0293,0.003 0.8864,-0.003 0.0541,-0.0224 0.0413,-0.0414 0.0224,-0.0541 v -0.0585 l -0.0224,-0.0541 -0.0413,-0.0414 -0.0541,-0.0224 -0.0293,-0.003 -0.2788,9e-4 -0.001,-0.708 h 1.8445 l 0.002,0.2064 -0.002,0.0152 0.003,0.0179 10e-5,0.004 8e-4,0.002 8e-4,0.005 0.0712,0.2746 0.001,0.0143 0.008,0.0219 6e-4,0.003 7e-4,8e-4 8e-4,0.002 0.074,0.1425 0.007,0.0166 0.005,0.006 10e-4,0.003 0.003,0.003 0.009,0.0115 0.1289,0.1258 0.002,0.003 0.0143,0.0124 0.0209,0.0203 0.005,0.002 0.004,0.004 0.0269,0.012 0.2146,0.0689 0.0178,0.007 0.007,7e-4 0.003,10e-4 0.004,-3e-4 0.0148,0.001 0.1442,-0.002 0.0174,0.001 0.007,-0.002 h 0.003 l 0.004,-0.002 0.0145,-0.003 0.1926,-0.0666 h 0.004 l 0.018,-0.007 0.027,-0.009 0.004,-0.004 0.005,-0.002 0.0227,-0.0186 0.0901,-0.0942 0.0224,-0.0541 v -0.0585 l -0.0224,-0.0541 -0.0414,-0.0413 -0.0541,-0.0224 h -0.0585 l -0.0541,0.0224 -0.0227,0.0186 -0.044,0.046 -0.1539,0.0532 -0.0952,0.002 -0.1601,-0.0513 -0.1007,-0.0983 -0.0535,-0.1029 -0.0652,-0.2513 -0.002,-0.1782 0.0604,-0.2509 0.0538,-0.112 0.101,-0.1036 0.1553,-0.0537 0.0952,-0.002 0.1608,0.0516 0.0709,0.0679 0.0541,0.0224 h 0.0585 l 0.0541,-0.0224 0.0414,-0.0414 0.0224,-0.054 v -0.0586 l -0.0224,-0.054 -0.0187,-0.0228 -0.0188,-0.018 h 0.1925 l 0.007,0.0287 0.4968,1.4818 8e-4,0.0104 0.008,0.0166 0.006,0.018 0.007,0.008 0.005,0.01 0.0142,0.0123 0.0123,0.0142 0.01,0.005 0.008,0.007 0.0178,0.006 0.0168,0.008 0.0107,8e-4 0.0102,0.003 0.0187,-0.001 0.0188,0.001 0.0102,-0.003 0.0107,-8e-4 0.0168,-0.008 0.0178,-0.006 0.008,-0.007 0.01,-0.005 0.0123,-0.0142 0.0143,-0.0123 0.005,-0.01 0.007,-0.008 0.012,-0.0268 0.5065,-1.5287 -0.004,-0.0584 -0.0261,-0.0523 -0.0443,-0.0384 -0.0555,-0.0185 -0.0584,0.004 -0.0523,0.0261 -0.0384,0.0443 -0.0119,0.0268 -0.3571,1.0776 -0.3703,-1.1044 -0.0384,-0.0443 -0.0523,-0.0261 -0.0584,-0.004 -0.0555,0.0185 -0.0442,0.0384 -0.0262,0.0523 -0.004,0.0584 h -0.1925 l -0.0393,-0.0376 -8e-4,-0.002 -0.01,-0.009 -0.0252,-0.0242 -0.005,-0.002 -0.004,-0.004 -0.0268,-0.012 -0.2146,-0.0689 -0.0179,-0.007 -0.007,-7e-4 -0.003,-0.001 -0.004,3e-4 -0.0148,-0.001 -0.1442,0.002 -0.0175,-10e-4 -0.007,0.002 h -0.003 l -0.004,0.002 -0.0145,0.003 -0.1926,0.0666 h -0.004 l -0.018,0.008 -0.0271,0.009 -0.004,0.004 -0.005,0.002 -0.0227,0.0187 -0.1411,0.1446 -0.0142,0.0124 -0.004,0.006 -0.002,0.002 -0.001,0.004 -0.008,0.0126 -0.0651,0.1354 -0.008,0.0105 -0.008,0.022 -10e-4,0.003 -1e-4,0.001 -8e-4,0.002 -0.0669,0.278 -0.006,0.0148 -0.002,0.0182 -9e-4,0.004 3e-4,0.002 -5e-4,0.005 H 119.4 l -0.001,-0.6289 0.003,-0.0141 -0.003,-0.0143 v -0.0148 l -0.006,-0.0137 -0.003,-0.0146 -0.008,-0.0122 -0.006,-0.0136 -0.0105,-0.0105 -0.008,-0.0123 -0.0122,-0.008 -0.0104,-0.0104 -0.0137,-0.006 -0.0124,-0.008 -0.0144,-0.003 -0.0136,-0.006 h -0.0148 l -0.0146,-0.003 -0.0144,0.003 h -0.0147 l -0.0137,0.006 -0.0146,0.003 -0.0122,0.008 -0.0136,0.006 -0.0105,0.0105 -0.0123,0.008 -0.0185,0.0225 -1e-4,10e-5 v 1e-4 h -1e-4 l -0.1263,0.1937 -0.118,0.121 -0.1514,0.0786 -0.0383,0.0442 -0.0185,0.0555 h -0.2737 l -10e-4,-0.102 10e-4,-0.003 -10e-4,-0.0192 -3e-4,-0.0288 -0.002,-0.005 -4e-4,-0.005 -0.0105,-0.0274 -0.074,-0.1426 -0.007,-0.0165 -0.005,-0.006 -0.002,-0.003 -0.003,-0.003 -0.009,-0.0115 -0.0752,-0.0719 -0.0103,-0.0119 -0.006,-0.004 -0.002,-0.002 -0.004,-0.002 -0.0126,-0.008 -0.1245,-0.0599 -0.002,-0.002 -0.0162,-0.007 -0.0275,-0.0132 -0.005,-4e-4 -0.005,-0.002 -0.0293,-0.003 -0.6007,0.003 -0.054,0.0224 -0.0414,0.0414 -0.0224,0.0541 -0.003,0.0292 h -0.1667 v -0.3166 h 6.9893 z"
     id="path84" />
  <path
     style="fill:#000000;fill-opacity:1;fill-rule:evenodd;stroke:none;stroke-width:0.3;stroke-linecap:round;stroke-linejoin:round;stroke-opacity:1"
     d="m 118.6335,140.5001 0.1008,0.0982 0.0534,0.1029 0.0652,0.2514 0.002,0.1782 -0.0603,0.2509 -0.0539,0.112 -0.101,0.1035 -0.1548,0.0535 -0.1896,0.001 -0.002,-1.2026 0.1787,-10e-4 z"
     id="path85" />
  <path
     style="fill:#000000;fill-opacity:1;fill-rule:evenodd;stroke:none;stroke-width:0.3;stroke-linecap:round;stroke-linejoin:round;stroke-opacity:1"
     d="m 120.9816,140.4912 0.0996,0.0971 0.0574,0.2212 0.002,0.4627 -0.0566,0.2353 -0.0937,0.096 -0.0913,0.0474 -0.215,0.002 -0.0891,-0.0429 -0.0996,-0.0971 -0.0573,-0.2212 -0.003,-0.4627 0.0566,-0.2353 0.0937,-0.096 0.0913,-0.0474 0.215,-0.002 z"
     id="path86" />
  <path
     style="fill:#000000;fill-opacity:1;fill-rule:evenodd;stroke:none;stroke-width:0.3;stroke-linecap:round;stroke-linejoin:round;stroke-opacity:1"
     d="m 115.7253,141.2228 -0.302,0.001 0.1503,-0.4535 z"
     id="path87" />
  <path
     style="fill:#000000;fill-opacity:1;fill-rule:evenodd;stroke:none;stroke-width:0.3;stroke-linecap:round;stroke-linejoin:round;stroke-opacity:1"
     d="m 124.9623,142.1173 h -10.2036 v -0.3355 h 0.1667 l 0.004,0.0584 0.0261,0.0524 0.0442,0.0383 0.0556,0.0185 0.0583,-0.004 0.0524,-0.0262 0.0383,-0.0442 0.012,-0.0269 0.1082,-0.3264 0.5001,-0.002 0.1191,0.3552 0.0384,0.0442 0.0523,0.0262 0.0584,0.004 0.0555,-0.0185 0.0442,-0.0383 0.0262,-0.0524 0.004,-0.0584 -0.007,-0.0286 -0.4871,-1.4526 h 0.6948 l 0.003,1.1908 -0.002,0.005 0.002,0.0232 1e-4,0.0248 0.002,0.005 3e-4,0.005 0.0106,0.0275 0.074,0.1425 0.007,0.0166 0.005,0.006 10e-4,0.003 0.003,0.003 0.009,0.0115 0.0751,0.0719 0.0104,0.012 0.006,0.004 0.002,0.002 0.004,0.001 0.0126,0.008 0.1245,0.0599 0.002,0.002 0.0161,0.007 0.0276,0.0133 0.005,4e-4 0.005,0.002 0.0292,0.003 0.2633,-0.002 0.004,0.001 0.0204,-0.001 0.0276,-3e-4 0.005,-0.002 0.005,-4e-4 0.0274,-0.0105 0.1426,-0.074 0.0165,-0.007 0.006,-0.005 0.003,-0.001 0.003,-0.003 0.0115,-0.01 0.0719,-0.0751 0.0119,-0.0104 0.004,-0.006 0.002,-0.002 10e-4,-0.004 0.008,-0.0126 0.0599,-0.1245 0.002,-0.002 0.007,-0.0161 0.0132,-0.0276 4e-4,-0.005 0.002,-0.005 0.003,-0.0292 -0.003,-1.2143 h 0.4171 l 0.003,1.5293 0.0224,0.054 0.0414,0.0414 0.0541,0.0224 0.0293,0.003 0.3551,-0.003 0.0208,10e-4 0.007,-0.002 h 0.003 l 0.004,-0.001 0.0145,-0.003 0.1926,-0.0666 h 0.004 l 0.018,-0.007 0.0271,-0.009 0.004,-0.004 0.005,-0.002 0.0227,-0.0187 0.1411,-0.1445 0.0142,-0.0124 0.004,-0.006 0.002,-0.002 0.001,-0.004 0.008,-0.0126 0.0651,-0.1354 0.008,-0.0105 0.008,-0.0219 0.001,-0.002 1e-4,-0.001 8e-4,-0.002 0.0669,-0.2779 0.006,-0.0149 0.002,-0.0182 9e-4,-0.004 -3e-4,-0.002 5e-4,-0.005 -0.002,-0.2063 0.002,-0.0152 -0.003,-0.018 -1e-4,-0.004 -8e-4,-0.002 -8e-4,-0.005 -0.0712,-0.2746 -0.001,-0.0144 -0.008,-0.0219 -7e-4,-0.002 -7e-4,-9e-4 -8e-4,-0.002 -0.074,-0.1426 -0.007,-0.0166 -0.005,-0.006 -0.002,-0.003 -0.003,-0.003 -0.009,-0.0115 -0.1109,-0.1082 h 0.6406 l 0.003,1.5293 0.0224,0.054 0.0414,0.0414 0.0541,0.0224 h 0.0585 l 0.0541,-0.0224 0.0414,-0.0414 0.0224,-0.054 0.003,-0.0293 -0.002,-1 h 0.3447 l 0.003,0.4905 -0.002,0.0168 0.003,0.0181 v 0.004 l 8e-4,0.002 8e-4,0.005 0.0698,0.2691 v 0.01 l 0.007,0.0159 0.005,0.0189 0.007,0.009 0.004,0.0103 0.0187,0.0228 0.1446,0.141 0.0123,0.0143 0.006,0.004 0.002,0.002 0.004,0.001 0.0126,0.008 0.1245,0.0599 0.002,0.002 0.0161,0.007 0.0276,0.0133 0.005,4e-4 0.005,0.002 0.0293,0.003 0.2632,-0.002 0.004,10e-4 0.0204,-10e-4 0.0276,-3e-4 0.005,-0.002 0.005,-4e-4 0.0274,-0.0105 0.1426,-0.074 0.0166,-0.007 0.006,-0.005 0.003,-0.001 0.003,-0.003 0.0115,-0.01 0.13,-0.1332 0.008,-0.005 0.01,-0.0134 0.014,-0.0144 0.004,-0.0103 0.007,-0.009 0.01,-0.0277 0.0669,-0.278 0.006,-0.0148 0.002,-0.0182 9e-4,-0.004 -3e-4,-0.002 5e-4,-0.005 -0.003,-0.4905 0.002,-0.0168 -0.003,-0.0181 v -0.004 l -8e-4,-0.002 -8e-4,-0.005 -0.0698,-0.2691 v -0.01 l -0.007,-0.0159 -0.005,-0.0189 -0.007,-0.009 -0.004,-0.0104 -0.0187,-0.0227 -0.1109,-0.1082 h 1.712 l 0.003,1.5293 0.0224,0.054 0.0414,0.0414 0.0541,0.0224 h 0.0585 l 0.0541,-0.0224 0.0413,-0.0414 0.0224,-0.054 0.003,-0.0293 -0.003,-1.5 h 0.4171 l 0.003,1.5293 0.0224,0.054 0.0414,0.0414 0.054,0.0224 h 0.0586 l 0.054,-0.0224 0.0414,-0.0414 0.0224,-0.054 0.003,-0.0293 -0.002,-0.9401 0.5768,1.0055 0.007,0.0179 0.007,0.007 0.005,0.008 0.0158,0.0122 0.0141,0.0141 0.009,0.004 0.008,0.006 0.0193,0.005 0.0184,0.008 h 0.01 l 0.009,0.002 0.0198,-0.002 h 0.0199 l 0.009,-0.004 0.01,-0.001 0.0174,-0.01 0.0184,-0.008 0.007,-0.007 0.008,-0.005 0.0122,-0.0158 0.0141,-0.0141 0.004,-0.009 0.006,-0.008 0.005,-0.0192 0.008,-0.0184 0.001,-0.015 10e-4,-0.004 -4e-4,-0.003 8e-4,-0.007 -0.003,-1.5293 -0.0224,-0.054 -0.0414,-0.0414 -0.0541,-0.0224 h -0.0585 l -0.0541,0.0224 -0.0414,0.0414 -0.0224,0.054 -0.003,0.0293 0.002,0.9401 -0.5767,-1.0055 -0.007,-0.0179 -0.007,-0.007 -0.005,-0.008 -0.0157,-0.0122 -0.0142,-0.0141 -0.009,-0.004 -0.007,-0.006 -0.0193,-0.005 -0.0184,-0.008 h -0.01 l -0.009,-0.002 -0.0198,0.002 h -0.02 l -0.009,0.004 -0.01,0.001 -0.0173,0.01 -0.0184,0.008 -0.007,0.007 -0.008,0.005 -0.0122,0.0158 -0.0141,0.0141 -0.004,0.009 -0.006,0.008 -0.005,0.0192 -0.008,0.0184 -0.002,0.015 -10e-4,0.004 4e-4,0.003 -8e-4,0.007 h -0.4171 l -1e-4,-0.0293 -0.0224,-0.054 -0.0413,-0.0414 -0.0541,-0.0224 h -0.0585 l -0.0541,0.0224 -0.0414,0.0414 -0.0224,0.054 -0.003,0.0293 h -1.712 l -0.0336,-0.0328 -0.0124,-0.0143 -0.006,-0.004 -0.002,-0.002 -0.004,-10e-4 -0.0126,-0.008 -0.1245,-0.0599 -0.002,-0.002 -0.0161,-0.007 -0.0276,-0.0133 -0.005,-4e-4 -0.005,-0.002 -0.0292,-0.003 -0.2633,0.002 -0.004,-0.001 -0.0204,0.001 -0.0276,3e-4 -0.005,0.002 -0.005,4e-4 -0.0274,0.0105 -0.1426,0.074 -0.0165,0.007 -0.006,0.005 -0.003,0.001 -0.003,0.003 -0.0115,0.01 -0.13,0.1332 -0.007,0.005 -0.01,0.0134 -0.014,0.0143 -0.004,0.0104 -0.007,0.009 -0.01,0.0277 -0.0669,0.278 -0.006,0.0148 -0.002,0.0182 -9e-4,0.004 3e-4,0.002 -5e-4,0.005 h -0.3447 l -0.001,-0.5293 -0.0224,-0.054 -0.0414,-0.0414 -0.0541,-0.0224 h -0.0585 l -0.0541,0.0224 -0.0414,0.0414 -0.0224,0.054 -0.003,0.0293 h -0.6406 l -0.018,-0.0175 -0.002,-0.003 -0.0143,-0.0124 -0.0209,-0.0204 -0.005,-0.002 -0.004,-0.004 -0.0269,-0.012 -0.2146,-0.0688 -0.0178,-0.007 -0.007,-8e-4 -0.003,-9e-4 -0.004,3e-4 -0.0148,-0.001 -0.3864,0.003 -0.0541,0.0224 -0.0414,0.0414 -0.0224,0.054 -0.003,0.0293 h -0.4171 l -1e-4,-0.0293 -0.0224,-0.054 -0.0414,-0.0414 -0.0541,-0.0224 h -0.0585 l -0.0541,0.0224 -0.0414,0.0414 -0.0224,0.054 -0.003,0.0293 0.003,1.1745 -0.0436,0.0905 -0.037,0.0387 -0.0897,0.0466 -0.215,0.002 -0.0896,-0.0432 -0.0387,-0.0369 -0.0464,-0.0894 -0.003,-1.2121 -0.0224,-0.054 -0.0413,-0.0414 -0.0541,-0.0224 h -0.0585 l -0.0541,0.0224 -0.0414,0.0414 -0.0224,0.054 -0.003,0.0293 h -0.6948 l -0.01,-0.0293 -7e-4,-0.0103 -0.008,-0.0166 -0.006,-0.0181 -0.007,-0.008 -0.005,-0.01 -0.0142,-0.0123 -0.0123,-0.0142 -0.01,-0.005 -0.008,-0.007 -0.0178,-0.006 -0.0169,-0.008 -0.0106,-7e-4 -0.0102,-0.003 -0.0188,10e-4 -0.0187,-10e-4 -0.0102,0.003 -0.0107,7e-4 -0.0168,0.008 -0.0179,0.006 -0.008,0.007 -0.01,0.005 -0.0124,0.0142 -0.0142,0.0123 -0.005,0.01 -0.007,0.008 -0.012,0.0269 -0.3573,1.0784 -0.005,0.0112 v 0.003 l -0.1446,0.4362 h -0.1667 v -1.7979 h 10.2036 z"
     id="path88" />
  <text
     x="118.11"
     y="111.5414"
     textLength="4.6714001"
     font-size="2px"
     lengthAdjust="spacingAndGlyphs"
     text-anchor="start"
     opacity="0"
     id="text88"
     style="fill:none;stroke:#000000;stroke-width:0.3;stroke-linecap:round;stroke-linejoin:round;stroke-opacity:1">LED</text>
  <path
     d="m 119.3788,111.3422 h -0.7143"
     id="path89"
     style="fill:none;stroke:#000000;stroke-width:0.3;stroke-linecap:round;stroke-linejoin:round;stroke-opacity:1" />
  <path
     d="m 118.6645,111.3422 v -1.5"
     id="path90"
     style="fill:none;stroke:#000000;stroke-width:0.3;stroke-linecap:round;stroke-linejoin:round;stroke-opacity:1" />
  <path
     d="m 119.8788,110.5565 h 0.5"
     id="path91"
     style="fill:none;stroke:#000000;stroke-width:0.3;stroke-linecap:round;stroke-linejoin:round;stroke-opacity:1" />
  <path
     d="m 120.5931,111.3422 h -0.7143"
     id="path92"
     style="fill:none;stroke:#000000;stroke-width:0.3;stroke-linecap:round;stroke-linejoin:round;stroke-opacity:1" />
  <path
     d="m 119.8788,111.3422 v -1.5"
     id="path93"
     style="fill:none;stroke:#000000;stroke-width:0.3;stroke-linecap:round;stroke-linejoin:round;stroke-opacity:1" />
  <path
     d="m 119.8788,109.8422 h 0.7143"
     id="path94"
     style="fill:none;stroke:#000000;stroke-width:0.3;stroke-linecap:round;stroke-linejoin:round;stroke-opacity:1" />
  <path
     d="m 121.2359,111.3422 v -1.5"
     id="path95"
     style="fill:none;stroke:#000000;stroke-width:0.3;stroke-linecap:round;stroke-linejoin:round;stroke-opacity:1" />
  <path
     d="m 121.2359,109.8422 h 0.3572"
     id="path96"
     style="fill:none;stroke:#000000;stroke-width:0.3;stroke-linecap:round;stroke-linejoin:round;stroke-opacity:1" />
  <path
     d="m 121.5931,109.8422 0.2143,0.0715"
     id="path97"
     style="fill:none;stroke:#000000;stroke-width:0.3;stroke-linecap:round;stroke-linejoin:round;stroke-opacity:1" />
  <path
     d="m 121.8074,109.9137 0.1428,0.1428"
     id="path98"
     style="fill:none;stroke:#000000;stroke-width:0.3;stroke-linecap:round;stroke-linejoin:round;stroke-opacity:1" />
  <path
     d="m 121.9502,110.0565 0.0715,0.1429"
     id="path99"
     style="fill:none;stroke:#000000;stroke-width:0.3;stroke-linecap:round;stroke-linejoin:round;stroke-opacity:1" />
  <path
     d="m 122.0217,110.1994 0.0714,0.2857"
     id="path100"
     style="fill:none;stroke:#000000;stroke-width:0.3;stroke-linecap:round;stroke-linejoin:round;stroke-opacity:1" />
  <path
     d="m 122.0931,110.4851 v 0.2143"
     id="path101"
     style="fill:none;stroke:#000000;stroke-width:0.3;stroke-linecap:round;stroke-linejoin:round;stroke-opacity:1" />
  <path
     d="m 122.0931,110.6994 -0.0714,0.2857"
     id="path102"
     style="fill:none;stroke:#000000;stroke-width:0.3;stroke-linecap:round;stroke-linejoin:round;stroke-opacity:1" />
  <path
     d="m 122.0217,110.9851 -0.0715,0.1428"
     id="path103"
     style="fill:none;stroke:#000000;stroke-width:0.3;stroke-linecap:round;stroke-linejoin:round;stroke-opacity:1" />
  <path
     d="m 121.9502,111.1279 -0.1428,0.1429"
     id="path104"
     style="fill:none;stroke:#000000;stroke-width:0.3;stroke-linecap:round;stroke-linejoin:round;stroke-opacity:1" />
  <path
     d="m 121.8074,111.2708 -0.2143,0.0714"
     id="path105"
     style="fill:none;stroke:#000000;stroke-width:0.3;stroke-linecap:round;stroke-linejoin:round;stroke-opacity:1" />
  <path
     d="m 121.5931,111.3422 h -0.3572"
     id="path106"
     style="fill:none;stroke:#000000;stroke-width:0.3;stroke-linecap:round;stroke-linejoin:round;stroke-opacity:1" />
  <path
     style="fill:#000000;fill-opacity:1;fill-rule:evenodd;stroke:none;stroke-width:0.3;stroke-linecap:round;stroke-linejoin:round;stroke-opacity:1"
     d="m 126.5117,59.2717 0.0387,0.037 0.0466,0.0899 0.002,0.1437 -0.0429,0.0893 -0.037,0.0386 -0.0894,0.0465 -0.3915,0.0019 -9e-4,-0.4885 0.3845,-0.0018 z"
     id="path107" />
  <path
     style="fill:#000000;fill-opacity:1;fill-rule:evenodd;stroke:none;stroke-width:0.3;stroke-linecap:round;stroke-linejoin:round;stroke-opacity:1"
     d="m 128.489,60.8975 h -2.9162 v -1.8167 h 0.1667 l 0.003,1.5293 0.0224,0.0541 0.0414,0.0413 0.054,0.0224 h 0.0586 l 0.054,-0.0224 0.0414,-0.0413 0.0224,-0.0541 0.003,-0.0293 -10e-4,-0.565 0.3994,-0.0019 0.004,0.0015 0.0222,-0.0016 0.0258,-1e-4 0.005,-0.0021 0.005,-4e-4 0.0274,-0.0105 0.1426,-0.074 0.0165,-0.0069 0.006,-0.0047 0.003,-0.0015 0.003,-0.003 0.0115,-0.0094 0.0719,-0.0752 0.0119,-0.0103 0.004,-0.0063 0.002,-0.0024 0.002,-0.0036 0.008,-0.0126 0.0599,-0.1246 0.002,-0.002 0.007,-0.0162 0.0132,-0.0276 4e-4,-0.0053 0.002,-0.005 0.003,-0.0293 -0.001,-0.0902 h 0.2737 l 0.004,0.0584 0.0262,0.0524 0.0442,0.0383 0.0555,0.0185 0.0584,-0.0041 0.0275,-0.0105 0.1425,-0.074 0.0166,-0.0069 0.006,-0.0047 0.003,-0.0015 0.003,-0.003 0.0115,-0.0095 0.0305,-0.0312 0.002,0.9199 -0.3104,0.001 -0.0541,0.0224 -0.0413,0.0414 -0.0224,0.0541 v 0.0585 l 0.0224,0.0541 0.0413,0.0413 0.0541,0.0224 0.0293,0.0029 0.8864,-0.0029 0.0541,-0.0224 0.0413,-0.0413 0.0224,-0.0541 v -0.0585 l -0.0224,-0.0541 -0.0413,-0.0414 -0.0541,-0.0224 -0.0293,-0.0029 -0.2788,9e-4 -0.002,-1.3369 0.003,-0.0141 -0.003,-0.0143 v -0.0148 l -0.006,-0.0138 -0.003,-0.0145 -0.008,-0.0122 -0.006,-0.0136 -0.0105,-0.0105 -0.008,-0.0123 -0.0122,-0.0082 -0.0104,-0.0104 -0.0137,-0.0057 -0.0124,-0.0082 -0.0144,-0.0029 -0.0136,-0.0056 h -0.0148 l -0.0146,-0.0029 -0.0144,0.0029 h -0.0147 l -0.0137,0.0057 -0.0146,0.0029 -0.0122,0.0082 -0.0136,0.0056 -0.0105,0.0105 -0.0123,0.0083 -0.0185,0.0225 -1e-4,1e-4 v 0 l -10e-5,10e-5 -0.1263,0.1937 -0.118,0.121 -0.1514,0.0786 -0.0383,0.0442 -0.0185,0.0555 h -0.2737 l -0.001,-0.102 0.001,-0.0033 -0.001,-0.0192 -3e-4,-0.0288 -0.002,-0.005 -4e-4,-0.0054 -0.0105,-0.0274 -0.074,-0.1426 -0.007,-0.0166 -0.005,-0.0057 -0.001,-0.0029 -0.003,-0.0026 -0.009,-0.0115 -0.0752,-0.0719 -0.0103,-0.0119 -0.006,-0.004 -0.002,-0.0023 -0.004,-0.0015 -0.0126,-0.0079 -0.1245,-0.0599 -0.002,-0.0021 -0.0162,-0.0067 -0.0275,-0.0132 -0.005,-4e-4 -0.005,-0.0021 -0.0293,-0.0029 -0.6007,0.0029 -0.054,0.0224 -0.0414,0.0414 -0.0224,0.0541 -0.003,0.0292 h -0.1667 v -0.3166 h 2.9162 z"
     id="path108" />
  <text
     x="140.97"
     y="30.075001"
     textLength="18.360001"
     font-size="3.6px"
     lengthAdjust="spacingAndGlyphs"
     text-anchor="end"
     opacity="0"
     id="text108"
     style="fill:none;stroke:#000000;stroke-width:0.6;stroke-linecap:round;stroke-linejoin:round;stroke-opacity:1">SEED FX</text>
  <path
     d="m 123.9895,29.5848 0.3858,0.1286"
     id="path109"
     style="fill:none;stroke:#000000;stroke-width:0.6;stroke-linecap:round;stroke-linejoin:round;stroke-opacity:1" />
  <path
     d="m 124.3753,29.7134 h 0.6428"
     id="path110"
     style="fill:none;stroke:#000000;stroke-width:0.6;stroke-linecap:round;stroke-linejoin:round;stroke-opacity:1" />
  <path
     d="m 125.0181,29.7134 0.2572,-0.1286"
     id="path111"
     style="fill:none;stroke:#000000;stroke-width:0.6;stroke-linecap:round;stroke-linejoin:round;stroke-opacity:1" />
  <path
     d="m 125.2753,29.5848 0.1285,-0.1286"
     id="path112"
     style="fill:none;stroke:#000000;stroke-width:0.6;stroke-linecap:round;stroke-linejoin:round;stroke-opacity:1" />
  <path
     d="m 125.4038,29.4562 0.1286,-0.2571"
     id="path113"
     style="fill:none;stroke:#000000;stroke-width:0.6;stroke-linecap:round;stroke-linejoin:round;stroke-opacity:1" />
  <path
     d="M 125.5324,29.1991 V 28.9419"
     id="path114"
     style="fill:none;stroke:#000000;stroke-width:0.6;stroke-linecap:round;stroke-linejoin:round;stroke-opacity:1" />
  <path
     d="m 125.5324,28.9419 -0.1286,-0.2571"
     id="path115"
     style="fill:none;stroke:#000000;stroke-width:0.6;stroke-linecap:round;stroke-linejoin:round;stroke-opacity:1" />
  <path
     d="m 125.4038,28.6848 -0.1285,-0.1286"
     id="path116"
     style="fill:none;stroke:#000000;stroke-width:0.6;stroke-linecap:round;stroke-linejoin:round;stroke-opacity:1" />
  <path
     d="m 125.2753,28.5562 -0.2572,-0.1285"
     id="path117"
     style="fill:none;stroke:#000000;stroke-width:0.6;stroke-linecap:round;stroke-linejoin:round;stroke-opacity:1" />
  <path
     d="m 125.0181,28.4277 -0.5143,-0.1286"
     id="path118"
     style="fill:none;stroke:#000000;stroke-width:0.6;stroke-linecap:round;stroke-linejoin:round;stroke-opacity:1" />
  <path
     d="m 124.5038,28.2991 -0.2571,-0.1286"
     id="path119"
     style="fill:none;stroke:#000000;stroke-width:0.6;stroke-linecap:round;stroke-linejoin:round;stroke-opacity:1" />
  <path
     d="m 124.2467,28.1705 -0.1286,-0.1286"
     id="path120"
     style="fill:none;stroke:#000000;stroke-width:0.6;stroke-linecap:round;stroke-linejoin:round;stroke-opacity:1" />
  <path
     d="m 124.1181,28.0419 -0.1286,-0.2571"
     id="path121"
     style="fill:none;stroke:#000000;stroke-width:0.6;stroke-linecap:round;stroke-linejoin:round;stroke-opacity:1" />
  <path
     d="M 123.9895,27.7848 V 27.5277"
     id="path122"
     style="fill:none;stroke:#000000;stroke-width:0.6;stroke-linecap:round;stroke-linejoin:round;stroke-opacity:1" />
  <path
     d="m 123.9895,27.5277 0.1286,-0.2572"
     id="path123"
     style="fill:none;stroke:#000000;stroke-width:0.6;stroke-linecap:round;stroke-linejoin:round;stroke-opacity:1" />
  <path
     d="m 124.1181,27.2705 0.1286,-0.1286"
     id="path124"
     style="fill:none;stroke:#000000;stroke-width:0.6;stroke-linecap:round;stroke-linejoin:round;stroke-opacity:1" />
  <path
     d="m 124.2467,27.1419 0.2571,-0.1285"
     id="path125"
     style="fill:none;stroke:#000000;stroke-width:0.6;stroke-linecap:round;stroke-linejoin:round;stroke-opacity:1" />
  <path
     d="m 124.5038,27.0134 h 0.6429"
     id="path126"
     style="fill:none;stroke:#000000;stroke-width:0.6;stroke-linecap:round;stroke-linejoin:round;stroke-opacity:1" />
  <path
     d="m 125.1467,27.0134 0.3857,0.1285"
     id="path127"
     style="fill:none;stroke:#000000;stroke-width:0.6;stroke-linecap:round;stroke-linejoin:round;stroke-opacity:1" />
  <path
     d="m 126.6895,28.2991 h 0.9"
     id="path128"
     style="fill:none;stroke:#000000;stroke-width:0.6;stroke-linecap:round;stroke-linejoin:round;stroke-opacity:1" />
  <path
     d="m 127.9753,29.7134 h -1.2858"
     id="path129"
     style="fill:none;stroke:#000000;stroke-width:0.6;stroke-linecap:round;stroke-linejoin:round;stroke-opacity:1" />
  <path
     d="m 126.6895,29.7134 v -2.7"
     id="path130"
     style="fill:none;stroke:#000000;stroke-width:0.6;stroke-linecap:round;stroke-linejoin:round;stroke-opacity:1" />
  <path
     d="m 126.6895,27.0134 h 1.2858"
     id="path131"
     style="fill:none;stroke:#000000;stroke-width:0.6;stroke-linecap:round;stroke-linejoin:round;stroke-opacity:1" />
  <path
     d="m 129.1324,28.2991 h 0.9"
     id="path132"
     style="fill:none;stroke:#000000;stroke-width:0.6;stroke-linecap:round;stroke-linejoin:round;stroke-opacity:1" />
  <path
     d="m 130.4181,29.7134 h -1.2857"
     id="path133"
     style="fill:none;stroke:#000000;stroke-width:0.6;stroke-linecap:round;stroke-linejoin:round;stroke-opacity:1" />
  <path
     d="m 129.1324,29.7134 v -2.7"
     id="path134"
     style="fill:none;stroke:#000000;stroke-width:0.6;stroke-linecap:round;stroke-linejoin:round;stroke-opacity:1" />
  <path
     d="m 129.1324,27.0134 h 1.2857"
     id="path135"
     style="fill:none;stroke:#000000;stroke-width:0.6;stroke-linecap:round;stroke-linejoin:round;stroke-opacity:1" />
  <path
     d="m 131.5753,29.7134 v -2.7"
     id="path136"
     style="fill:none;stroke:#000000;stroke-width:0.6;stroke-linecap:round;stroke-linejoin:round;stroke-opacity:1" />
  <path
     d="m 131.5753,27.0134 h 0.6428"
     id="path137"
     style="fill:none;stroke:#000000;stroke-width:0.6;stroke-linecap:round;stroke-linejoin:round;stroke-opacity:1" />
  <path
     d="m 132.2181,27.0134 0.3857,0.1285"
     id="path138"
     style="fill:none;stroke:#000000;stroke-width:0.6;stroke-linecap:round;stroke-linejoin:round;stroke-opacity:1" />
  <path
     d="m 132.6038,27.1419 0.2572,0.2572"
     id="path139"
     style="fill:none;stroke:#000000;stroke-width:0.6;stroke-linecap:round;stroke-linejoin:round;stroke-opacity:1" />
  <path
     d="m 132.861,27.3991 0.1285,0.2571"
     id="path140"
     style="fill:none;stroke:#000000;stroke-width:0.6;stroke-linecap:round;stroke-linejoin:round;stroke-opacity:1" />
  <path
     d="m 132.9895,27.6562 0.1286,0.5143"
     id="path141"
     style="fill:none;stroke:#000000;stroke-width:0.6;stroke-linecap:round;stroke-linejoin:round;stroke-opacity:1" />
  <path
     d="m 133.1181,28.1705 v 0.3857"
     id="path142"
     style="fill:none;stroke:#000000;stroke-width:0.6;stroke-linecap:round;stroke-linejoin:round;stroke-opacity:1" />
  <path
     d="m 133.1181,28.5562 -0.1286,0.5143"
     id="path143"
     style="fill:none;stroke:#000000;stroke-width:0.6;stroke-linecap:round;stroke-linejoin:round;stroke-opacity:1" />
  <path
     d="m 132.9895,29.0705 -0.1285,0.2572"
     id="path144"
     style="fill:none;stroke:#000000;stroke-width:0.6;stroke-linecap:round;stroke-linejoin:round;stroke-opacity:1" />
  <path
     d="m 132.861,29.3277 -0.2572,0.2571"
     id="path145"
     style="fill:none;stroke:#000000;stroke-width:0.6;stroke-linecap:round;stroke-linejoin:round;stroke-opacity:1" />
  <path
     d="m 132.6038,29.5848 -0.3857,0.1286"
     id="path146"
     style="fill:none;stroke:#000000;stroke-width:0.6;stroke-linecap:round;stroke-linejoin:round;stroke-opacity:1" />
  <path
     d="m 132.2181,29.7134 h -0.6428"
     id="path147"
     style="fill:none;stroke:#000000;stroke-width:0.6;stroke-linecap:round;stroke-linejoin:round;stroke-opacity:1" />
  <path
     d="m 137.2324,28.2991 h -0.9"
     id="path148"
     style="fill:none;stroke:#000000;stroke-width:0.6;stroke-linecap:round;stroke-linejoin:round;stroke-opacity:1" />
  <path
     d="m 136.3324,29.7134 v -2.7"
     id="path149"
     style="fill:none;stroke:#000000;stroke-width:0.6;stroke-linecap:round;stroke-linejoin:round;stroke-opacity:1" />
  <path
     d="m 136.3324,27.0134 h 1.2857"
     id="path150"
     style="fill:none;stroke:#000000;stroke-width:0.6;stroke-linecap:round;stroke-linejoin:round;stroke-opacity:1" />
  <path
     d="m 138.3895,27.0134 1.8,2.7"
     id="path151"
     style="fill:none;stroke:#000000;stroke-width:0.6;stroke-linecap:round;stroke-linejoin:round;stroke-opacity:1" />
  <path
     d="m 140.1895,27.0134 -1.8,2.7"
     id="path152"
     style="fill:none;stroke:#000000;stroke-width:0.6;stroke-linecap:round;stroke-linejoin:round;stroke-opacity:1" />
  <path
     style="fill:#000000;fill-opacity:1;fill-rule:evenodd;stroke:none;stroke-width:0.6;stroke-linecap:round;stroke-linejoin:round;stroke-opacity:1"
     d="m 126.5117,87.2117 0.0387,0.037 0.0466,0.0899 0.002,0.1437 -0.0429,0.0893 -0.037,0.0386 -0.0894,0.0465 -0.3915,0.0019 -9e-4,-0.4885 0.3845,-0.0018 z"
     id="path153" />
  <path
     style="fill:#000000;fill-opacity:1;fill-rule:evenodd;stroke:none;stroke-width:0.6;stroke-linecap:round;stroke-linejoin:round;stroke-opacity:1"
     d="m 128.4919,88.8375 h -2.9191 v -1.8167 h 0.1667 l 0.003,1.5293 0.0224,0.0541 0.0414,0.0413 0.054,0.0224 h 0.0586 l 0.054,-0.0224 0.0414,-0.0413 0.0224,-0.0541 0.003,-0.0293 v -0.0292 h 1.06 v 0.0585 l 0.0224,0.0541 0.0414,0.0413 0.0317,0.0132 0.0224,0.0092 0.0293,0.0029 0.9578,-0.0029 0.0541,-0.0224 0.0413,-0.0413 0.0224,-0.0541 v -0.0585 l -0.0224,-0.0541 -0.0413,-0.0414 -0.0541,-0.0224 -0.0293,-0.0029 -0.5693,0.0017 0.5854,-0.5881 0.004,-0.0022 0.0152,-0.0176 0.0175,-0.0176 0.002,-0.005 0.004,-0.004 0.012,-0.0269 0.0689,-0.2146 0.007,-0.0178 8e-4,-0.0075 9e-4,-0.003 -2e-4,-0.004 0.001,-0.0148 -0.002,-0.1215 8e-4,-0.0026 -0.001,-0.0166 -6e-4,-0.0314 -0.002,-0.005 -4e-4,-0.0054 -0.0105,-0.0274 -0.074,-0.1426 -0.007,-0.0166 -0.005,-0.0057 -0.002,-0.0029 -0.003,-0.0026 -0.009,-0.0115 -0.0752,-0.0719 -0.0104,-0.0119 -0.006,-0.004 -0.002,-0.0023 -0.004,-0.0015 -0.0126,-0.0079 -0.1245,-0.0599 -0.002,-0.0021 -0.0161,-0.0067 -0.0276,-0.0132 -0.005,-4e-4 -0.005,-0.0021 -0.0293,-0.0029 -0.3344,0.0025 -0.004,-0.0013 -0.0211,0.0015 -0.0269,2e-4 -0.005,0.0021 -0.005,4e-4 -0.0274,0.0105 -0.1426,0.074 -0.0165,0.0068 -0.006,0.0048 -0.003,0.0015 -0.003,0.0029 -0.0115,0.0095 -0.09,0.0941 -0.0224,0.0541 v 0.0585 l 0.0224,0.0541 0.0413,0.0414 0.0541,0.0224 h 0.0585 l 0.0541,-0.0224 0.0227,-0.0186 0.0504,-0.0527 0.0896,-0.0465 0.2863,-0.0021 0.0899,0.0432 0.0386,0.037 0.0469,0.0902 10e-4,0.0811 -0.0511,0.1595 -0.8541,0.858 -0.0224,0.0541 h -1.06 l -0.001,-0.5358 0.3994,-0.0019 0.004,0.0015 0.0222,-0.0016 0.0258,-1e-4 0.005,-0.0021 0.005,-4e-4 0.0274,-0.0105 0.1426,-0.074 0.0165,-0.0069 0.006,-0.0047 0.003,-0.0015 0.003,-0.003 0.0115,-0.0094 0.0719,-0.0752 0.0119,-0.0103 0.004,-0.0063 0.002,-0.0024 0.002,-0.0036 0.008,-0.0126 0.0599,-0.1246 0.002,-0.002 0.007,-0.0162 0.0132,-0.0276 4e-4,-0.0053 0.002,-0.005 0.003,-0.0293 -0.002,-0.1922 0.001,-0.0033 -0.001,-0.0192 -3e-4,-0.0288 -0.002,-0.005 -4e-4,-0.0054 -0.0105,-0.0274 -0.074,-0.1426 -0.007,-0.0166 -0.005,-0.0057 -0.001,-0.0029 -0.003,-0.0026 -0.009,-0.0115 -0.0752,-0.0719 -0.0103,-0.0119 -0.006,-0.004 -0.002,-0.0023 -0.004,-0.0015 -0.0126,-0.0079 -0.1245,-0.0599 -0.002,-0.0021 -0.0162,-0.0067 -0.0275,-0.0132 -0.005,-4e-4 -0.005,-0.0021 -0.0293,-0.0029 -0.6007,0.0029 -0.054,0.0224 -0.0414,0.0414 -0.0224,0.0541 -0.003,0.0292 h -0.1667 v -0.3166 h 2.9191 z"
     id="path154" />
  <path
     style="fill:#000000;fill-opacity:1;fill-rule:evenodd;stroke:none;stroke-width:0.6;stroke-linecap:round;stroke-linejoin:round;stroke-opacity:1"
     d="m 138.4033,111.6975 h -8.0619 v -1.531 h 0.1667 l 0.002,0.1216 -8e-4,0.002 0.001,0.0166 6e-4,0.0315 0.002,0.005 4e-4,0.005 0.0105,0.0275 0.074,0.1425 0.007,0.0166 0.005,0.006 0.001,0.003 0.003,0.003 0.009,0.0115 0.0752,0.0719 0.0104,0.012 0.006,0.004 0.002,0.002 0.004,0.002 0.0126,0.008 0.1354,0.0652 0.0104,0.008 0.022,0.008 0.002,10e-4 10e-4,1e-4 0.002,7e-4 0.2603,0.0627 0.1126,0.0541 0.0386,0.037 0.0469,0.0902 10e-4,0.0727 -0.0426,0.0886 -0.037,0.0386 -0.0896,0.0466 -0.2944,0.002 -0.2266,-0.0727 -0.0583,0.004 -0.0524,0.0262 -0.0383,0.0442 -0.0185,0.0555 0.004,0.0584 0.0262,0.0524 0.0442,0.0383 0.0268,0.012 0.2147,0.0689 0.0178,0.007 0.007,8e-4 0.003,0.001 0.004,-3e-4 0.0148,0.001 0.3344,-0.002 0.004,10e-4 0.0212,-0.002 0.0269,-2e-4 0.005,-0.002 0.005,-4e-4 0.0275,-0.0105 0.1425,-0.074 0.0166,-0.007 0.006,-0.005 0.003,-0.002 0.003,-0.003 0.0115,-0.009 0.0719,-0.0752 0.012,-0.0104 0.004,-0.006 0.002,-0.002 0.001,-0.004 0.008,-0.0125 0.0599,-0.1246 0.002,-0.002 0.007,-0.0161 0.0133,-0.0276 4e-4,-0.005 0.002,-0.005 0.003,-0.0293 -0.002,-0.1215 8e-4,-0.003 -0.001,-0.0165 -6e-4,-0.0315 -0.002,-0.005 -4e-4,-0.005 -0.0105,-0.0274 -0.074,-0.1426 -0.007,-0.0165 -0.005,-0.006 -0.001,-0.003 -0.003,-0.003 -0.009,-0.0115 -0.0752,-0.0719 -0.0104,-0.0119 -0.006,-0.004 -0.002,-0.002 -0.004,-0.002 -0.0126,-0.008 -0.1354,-0.0651 -0.0104,-0.008 -0.022,-0.008 -0.002,-10e-4 -0.001,-1e-4 -0.002,-8e-4 -0.2603,-0.0626 -0.1126,-0.0541 -0.0386,-0.037 -0.0469,-0.0902 -10e-4,-0.0727 0.0426,-0.0886 0.037,-0.0387 0.0896,-0.0465 0.2944,-0.002 0.2266,0.0727 0.0583,-0.004 0.0524,-0.0261 0.0383,-0.0443 0.0185,-0.0555 -0.004,-0.0584 -0.0131,-0.0262 h 0.2185 l 0.004,0.0292 0.3583,1.4927 0.003,0.0209 0.004,0.007 0.002,0.008 0.0128,0.0176 0.0109,0.0189 0.006,0.005 0.004,0.006 0.0186,0.0114 0.0173,0.0132 0.007,0.002 0.007,0.004 0.0215,0.003 0.021,0.006 0.008,-0.001 0.008,0.001 0.0212,-0.005 0.0216,-0.003 0.007,-0.004 0.007,-0.002 0.0177,-0.0128 0.0188,-0.0109 0.005,-0.006 0.006,-0.004 0.0114,-0.0186 0.0133,-0.0173 0.004,-0.0108 0.002,-0.003 6e-4,-0.004 0.004,-0.01 0.1408,-0.5334 0.1418,0.5263 0.003,0.0206 0.004,0.006 0.002,0.008 0.0132,0.0173 0.0114,0.0186 0.006,0.004 0.005,0.006 0.0188,0.0109 0.0177,0.0128 0.007,0.002 0.007,0.004 0.0216,0.003 0.0212,0.005 0.008,-0.001 0.008,0.001 0.0211,-0.006 0.0215,-0.003 0.006,-0.004 0.007,-0.002 0.0173,-0.0132 0.0185,-0.0114 0.004,-0.006 0.006,-0.005 0.0109,-0.0189 0.0127,-0.0176 0.004,-0.0109 0.002,-0.003 5e-4,-0.004 0.003,-0.01 0.3611,-1.5292 -9e-4,-0.006 h 0.2725 l 0.003,1.5293 0.0224,0.0541 0.0414,0.0413 0.0541,0.0224 h 0.0585 l 0.0541,-0.0224 0.0414,-0.0413 0.0224,-0.0541 0.003,-0.0293 -0.003,-1.5292 h 0.2057 v 0.0585 l 0.0224,0.0541 0.0414,0.0413 0.0541,0.0224 0.0293,0.003 0.2788,-9e-4 0.003,1.3802 0.0224,0.0541 0.0414,0.0413 0.0541,0.0224 h 0.0585 l 0.0541,-0.0224 0.0414,-0.0413 0.0224,-0.0541 0.003,-0.0293 -0.002,-0.8571 h 0.5588 l 0.002,0.2063 -0.002,0.0153 0.003,0.0179 1e-4,0.004 8e-4,0.002 8e-4,0.005 0.0712,0.2746 0.001,0.0143 0.008,0.0219 7e-4,0.003 6e-4,8e-4 8e-4,0.002 0.0741,0.1425 0.007,0.0166 0.005,0.006 10e-4,0.003 0.003,0.003 0.01,0.0115 0.1289,0.1258 0.001,0.003 0.0143,0.0124 0.0209,0.0203 0.005,0.002 0.004,0.004 0.0269,0.012 0.2146,0.0689 0.0178,0.007 0.007,8e-4 0.003,10e-4 0.004,-3e-4 0.0148,0.001 0.1442,-0.002 0.0174,0.001 0.007,-0.002 0.003,-1e-4 0.004,-0.002 0.0145,-0.003 0.1925,-0.0666 h 0.004 l 0.018,-0.007 0.027,-0.009 0.004,-0.004 0.005,-0.002 0.0227,-0.0186 0.0901,-0.0942 0.0224,-0.0541 v -0.0585 l -0.0224,-0.0541 -0.0414,-0.0414 -0.0541,-0.0223 h -0.0585 l -0.0541,0.0224 -0.0227,0.0186 -0.044,0.046 -0.1539,0.0532 -0.0953,0.002 -0.1601,-0.0513 -0.1007,-0.0983 -0.0534,-0.1029 -0.0652,-0.2513 -0.002,-0.1782 0.0603,-0.251 0.0539,-0.112 0.101,-0.1035 0.1552,-0.0537 0.0953,-0.002 0.1607,0.0516 0.071,0.0679 0.0541,0.0224 h 0.0585 l 0.0541,-0.0224 0.0414,-0.0414 0.0224,-0.0541 v -0.0585 l -0.0224,-0.0541 -0.0187,-0.0227 -0.0384,-0.0368 h 0.4252 l 0.003,1.5293 0.0224,0.0541 0.0414,0.0413 0.054,0.0224 h 0.0586 l 0.054,-0.0224 0.0414,-0.0413 0.0224,-0.0541 0.003,-0.0293 -0.001,-0.6362 0.56,-0.002 0.001,0.6673 0.0224,0.0541 0.0414,0.0413 0.0541,0.0224 h 0.0585 l 0.0541,-0.0224 0.0414,-0.0413 0.0224,-0.0541 0.003,-0.0293 -0.003,-1.5292 -0.0224,-0.0541 -0.0414,-0.0414 -0.0541,-0.0224 h -0.0585 l -0.0541,0.0224 -0.0414,0.0414 -0.0224,0.0541 -0.003,0.0292 0.001,0.5648 -0.56,0.002 -0.001,-0.5958 -0.0224,-0.0541 -0.0414,-0.0414 -0.054,-0.0224 h -0.0586 l -0.054,0.0224 -0.0414,0.0414 -0.0224,0.0541 -0.003,0.0292 h -0.4252 l -0.0197,-0.0188 -9e-4,-0.002 -0.01,-0.009 -0.0252,-0.0242 -0.005,-0.002 -0.004,-0.004 -0.0268,-0.0119 -0.2147,-0.0689 -0.0178,-0.007 -0.007,-7e-4 -0.003,-0.001 -0.004,3e-4 -0.0148,-0.001 -0.1442,0.002 -0.0174,-10e-4 -0.007,0.002 h -0.003 l -0.004,0.002 -0.0146,0.003 -0.1925,0.0666 h -0.004 l -0.018,0.008 -0.027,0.009 -0.004,0.004 -0.005,0.002 -0.0228,0.0187 -0.141,0.1446 -0.0143,0.0123 -0.004,0.006 -0.002,0.002 -0.001,0.004 -0.008,0.0126 -0.0652,0.1354 -0.008,0.0105 -0.008,0.022 -0.001,0.003 v 0.001 l -8e-4,0.002 -0.0669,0.278 -0.006,0.0148 -0.002,0.0182 -9e-4,0.004 3e-4,0.002 -5e-4,0.005 h -0.5588 l -9e-4,-0.4947 0.3104,-10e-4 0.054,-0.0224 0.0414,-0.0413 0.0224,-0.0541 v -0.0585 l -0.0224,-0.0541 -0.0414,-0.0414 -0.054,-0.0224 -0.0293,-0.003 -0.8864,0.003 -0.0541,0.0224 -0.0414,0.0414 -0.0224,0.0541 h -0.2057 l -0.0224,-0.0541 -0.0414,-0.0414 -0.0541,-0.0224 h -0.0585 l -0.0541,0.0224 -0.0414,0.0414 -0.0224,0.0541 -0.003,0.0292 h -0.2725 l -0.008,-0.0522 -0.0307,-0.0498 -0.0474,-0.0343 -0.057,-0.0136 -0.0577,0.009 -0.0499,0.0307 -0.0343,0.0474 -0.01,0.0278 -0.2192,0.9283 -0.1332,-0.4945 -0.003,-0.0189 -0.005,-0.008 -0.002,-0.01 -0.012,-0.0157 -0.01,-0.0171 -0.008,-0.006 -0.006,-0.008 -0.0171,-0.01 -0.0157,-0.012 -0.009,-0.002 -0.008,-0.005 -0.0197,-0.003 -0.0191,-0.005 -0.01,10e-4 -0.01,-10e-4 -0.0191,0.005 -0.0196,0.003 -0.008,0.005 -0.009,0.002 -0.0157,0.012 -0.0172,0.01 -0.006,0.008 -0.008,0.006 -0.01,0.0171 -0.012,0.0157 -0.005,0.0144 -0.002,0.003 -4e-4,0.003 -0.003,0.007 -0.1324,0.5019 -0.2291,-0.9544 -0.0344,-0.0474 -0.0498,-0.0307 -0.0578,-0.009 -0.0569,0.0136 -0.0474,0.0343 -0.0307,0.0498 -0.009,0.0578 h -0.2185 l -0.0131,-0.0261 -0.0442,-0.0384 -0.0268,-0.0119 -0.2147,-0.0689 -0.0178,-0.007 -0.007,-7e-4 -0.003,-0.001 -0.004,3e-4 -0.0148,-10e-4 -0.3344,0.002 -0.004,-0.001 -0.0212,0.002 -0.0269,2e-4 -0.005,0.002 -0.005,4e-4 -0.0275,0.0105 -0.1425,0.074 -0.0166,0.007 -0.006,0.005 -0.003,0.001 -0.003,0.003 -0.0115,0.009 -0.0719,0.0751 -0.012,0.0104 -0.004,0.006 -0.002,0.002 -0.002,0.004 -0.008,0.0126 -0.0599,0.1245 -0.002,0.002 -0.007,0.0161 -0.0133,0.0276 -4e-4,0.005 -0.002,0.005 -0.003,0.0292 h -0.1667 v -0.6023 h 8.0619 z"
     id="path155" />
  <text
     x="128.7079"
     y="141.9315"
     textLength="12.6714"
     font-size="2px"
     lengthAdjust="spacingAndGlyphs"
     text-anchor="start"
     opacity="0"
     id="text155"
     style="fill:none;stroke:#000000;stroke-width:0.3;stroke-linecap:round;stroke-linejoin:round;stroke-opacity:1">AUDIO OUT</text>
  <path
     d="m 129.191,141.3038 h 0.7143"
     id="path156"
     style="fill:none;stroke:#000000;stroke-width:0.3;stroke-linecap:round;stroke-linejoin:round;stroke-opacity:1" />
  <path
     d="m 129.0481,141.7323 0.5,-1.5"
     id="path157"
     style="fill:none;stroke:#000000;stroke-width:0.3;stroke-linecap:round;stroke-linejoin:round;stroke-opacity:1" />
  <path
     d="m 129.5481,140.2323 0.5,1.5"
     id="path158"
     style="fill:none;stroke:#000000;stroke-width:0.3;stroke-linecap:round;stroke-linejoin:round;stroke-opacity:1" />
  <path
     d="m 130.5481,140.2323 v 1.2143"
     id="path159"
     style="fill:none;stroke:#000000;stroke-width:0.3;stroke-linecap:round;stroke-linejoin:round;stroke-opacity:1" />
  <path
     d="m 130.5481,141.4466 0.0715,0.1429"
     id="path160"
     style="fill:none;stroke:#000000;stroke-width:0.3;stroke-linecap:round;stroke-linejoin:round;stroke-opacity:1" />
  <path
     d="m 130.6196,141.5895 0.0714,0.0714"
     id="path161"
     style="fill:none;stroke:#000000;stroke-width:0.3;stroke-linecap:round;stroke-linejoin:round;stroke-opacity:1" />
  <path
     d="m 130.691,141.6609 0.1428,0.0714"
     id="path162"
     style="fill:none;stroke:#000000;stroke-width:0.3;stroke-linecap:round;stroke-linejoin:round;stroke-opacity:1" />
  <path
     d="m 130.8338,141.7323 h 0.2858"
     id="path163"
     style="fill:none;stroke:#000000;stroke-width:0.3;stroke-linecap:round;stroke-linejoin:round;stroke-opacity:1" />
  <path
     d="m 131.1196,141.7323 0.1428,-0.0714"
     id="path164"
     style="fill:none;stroke:#000000;stroke-width:0.3;stroke-linecap:round;stroke-linejoin:round;stroke-opacity:1" />
  <path
     d="m 131.2624,141.6609 0.0714,-0.0714"
     id="path165"
     style="fill:none;stroke:#000000;stroke-width:0.3;stroke-linecap:round;stroke-linejoin:round;stroke-opacity:1" />
  <path
     d="m 131.3338,141.5895 0.0715,-0.1429"
     id="path166"
     style="fill:none;stroke:#000000;stroke-width:0.3;stroke-linecap:round;stroke-linejoin:round;stroke-opacity:1" />
  <path
     d="m 131.4053,141.4466 v -1.2143"
     id="path167"
     style="fill:none;stroke:#000000;stroke-width:0.3;stroke-linecap:round;stroke-linejoin:round;stroke-opacity:1" />
  <path
     d="m 132.1196,141.7323 v -1.5"
     id="path168"
     style="fill:none;stroke:#000000;stroke-width:0.3;stroke-linecap:round;stroke-linejoin:round;stroke-opacity:1" />
  <path
     d="m 132.1196,140.2323 h 0.3571"
     id="path169"
     style="fill:none;stroke:#000000;stroke-width:0.3;stroke-linecap:round;stroke-linejoin:round;stroke-opacity:1" />
  <path
     d="m 132.4767,140.2323 0.2143,0.0715"
     id="path170"
     style="fill:none;stroke:#000000;stroke-width:0.3;stroke-linecap:round;stroke-linejoin:round;stroke-opacity:1" />
  <path
     d="m 132.691,140.3038 0.1428,0.1428"
     id="path171"
     style="fill:none;stroke:#000000;stroke-width:0.3;stroke-linecap:round;stroke-linejoin:round;stroke-opacity:1" />
  <path
     d="m 132.8338,140.4466 0.0715,0.1429"
     id="path172"
     style="fill:none;stroke:#000000;stroke-width:0.3;stroke-linecap:round;stroke-linejoin:round;stroke-opacity:1" />
  <path
     d="m 132.9053,140.5895 0.0714,0.2857"
     id="path173"
     style="fill:none;stroke:#000000;stroke-width:0.3;stroke-linecap:round;stroke-linejoin:round;stroke-opacity:1" />
  <path
     d="m 132.9767,140.8752 v 0.2143"
     id="path174"
     style="fill:none;stroke:#000000;stroke-width:0.3;stroke-linecap:round;stroke-linejoin:round;stroke-opacity:1" />
  <path
     d="m 132.9767,141.0895 -0.0714,0.2857"
     id="path175"
     style="fill:none;stroke:#000000;stroke-width:0.3;stroke-linecap:round;stroke-linejoin:round;stroke-opacity:1" />
  <path
     d="m 132.9053,141.3752 -0.0715,0.1428"
     id="path176"
     style="fill:none;stroke:#000000;stroke-width:0.3;stroke-linecap:round;stroke-linejoin:round;stroke-opacity:1" />
  <path
     d="m 132.8338,141.518 -0.1428,0.1429"
     id="path177"
     style="fill:none;stroke:#000000;stroke-width:0.3;stroke-linecap:round;stroke-linejoin:round;stroke-opacity:1" />
  <path
     d="m 132.691,141.6609 -0.2143,0.0714"
     id="path178"
     style="fill:none;stroke:#000000;stroke-width:0.3;stroke-linecap:round;stroke-linejoin:round;stroke-opacity:1" />
  <path
     d="m 132.4767,141.7323 h -0.3571"
     id="path179"
     style="fill:none;stroke:#000000;stroke-width:0.3;stroke-linecap:round;stroke-linejoin:round;stroke-opacity:1" />
  <path
     d="m 133.6196,141.7323 v -1.5"
     id="path180"
     style="fill:none;stroke:#000000;stroke-width:0.3;stroke-linecap:round;stroke-linejoin:round;stroke-opacity:1" />
  <path
     d="m 134.6196,140.2323 h 0.2857"
     id="path181"
     style="fill:none;stroke:#000000;stroke-width:0.3;stroke-linecap:round;stroke-linejoin:round;stroke-opacity:1" />
  <path
     d="m 134.9053,140.2323 0.1428,0.0715"
     id="path182"
     style="fill:none;stroke:#000000;stroke-width:0.3;stroke-linecap:round;stroke-linejoin:round;stroke-opacity:1" />
  <path
     d="m 135.0481,140.3038 0.1429,0.1428"
     id="path183"
     style="fill:none;stroke:#000000;stroke-width:0.3;stroke-linecap:round;stroke-linejoin:round;stroke-opacity:1" />
  <path
     d="m 135.191,140.4466 0.0714,0.2857"
     id="path184"
     style="fill:none;stroke:#000000;stroke-width:0.3;stroke-linecap:round;stroke-linejoin:round;stroke-opacity:1" />
  <path
     d="m 135.2624,140.7323 v 0.5"
     id="path185"
     style="fill:none;stroke:#000000;stroke-width:0.3;stroke-linecap:round;stroke-linejoin:round;stroke-opacity:1" />
  <path
     d="m 135.2624,141.2323 -0.0714,0.2857"
     id="path186"
     style="fill:none;stroke:#000000;stroke-width:0.3;stroke-linecap:round;stroke-linejoin:round;stroke-opacity:1" />
  <path
     d="m 135.191,141.518 -0.1429,0.1429"
     id="path187"
     style="fill:none;stroke:#000000;stroke-width:0.3;stroke-linecap:round;stroke-linejoin:round;stroke-opacity:1" />
  <path
     d="m 135.0481,141.6609 -0.1428,0.0714"
     id="path188"
     style="fill:none;stroke:#000000;stroke-width:0.3;stroke-linecap:round;stroke-linejoin:round;stroke-opacity:1" />
  <path
     d="m 134.9053,141.7323 h -0.2857"
     id="path189"
     style="fill:none;stroke:#000000;stroke-width:0.3;stroke-linecap:round;stroke-linejoin:round;stroke-opacity:1" />
  <path
     d="m 134.6196,141.7323 -0.1429,-0.0714"
     id="path190"
     style="fill:none;stroke:#000000;stroke-width:0.3;stroke-linecap:round;stroke-linejoin:round;stroke-opacity:1" />
  <path
     d="m 134.4767,141.6609 -0.1429,-0.1429"
     id="path191"
     style="fill:none;stroke:#000000;stroke-width:0.3;stroke-linecap:round;stroke-linejoin:round;stroke-opacity:1" />
  <path
     d="m 134.3338,141.518 -0.0714,-0.2857"
     id="path192"
     style="fill:none;stroke:#000000;stroke-width:0.3;stroke-linecap:round;stroke-linejoin:round;stroke-opacity:1" />
  <path
     d="m 134.2624,141.2323 v -0.5"
     id="path193"
     style="fill:none;stroke:#000000;stroke-width:0.3;stroke-linecap:round;stroke-linejoin:round;stroke-opacity:1" />
  <path
     d="m 134.2624,140.7323 0.0714,-0.2857"
     id="path194"
     style="fill:none;stroke:#000000;stroke-width:0.3;stroke-linecap:round;stroke-linejoin:round;stroke-opacity:1" />
  <path
     d="m 134.3338,140.4466 0.1429,-0.1428"
     id="path195"
     style="fill:none;stroke:#000000;stroke-width:0.3;stroke-linecap:round;stroke-linejoin:round;stroke-opacity:1" />
  <path
     d="m 134.4767,140.3038 0.1429,-0.0715"
     id="path196"
     style="fill:none;stroke:#000000;stroke-width:0.3;stroke-linecap:round;stroke-linejoin:round;stroke-opacity:1" />
  <path
     d="m 137.3338,140.2323 h 0.2858"
     id="path197"
     style="fill:none;stroke:#000000;stroke-width:0.3;stroke-linecap:round;stroke-linejoin:round;stroke-opacity:1" />
  <path
     d="m 137.6196,140.2323 0.1428,0.0715"
     id="path198"
     style="fill:none;stroke:#000000;stroke-width:0.3;stroke-linecap:round;stroke-linejoin:round;stroke-opacity:1" />
  <path
     d="m 137.7624,140.3038 0.1429,0.1428"
     id="path199"
     style="fill:none;stroke:#000000;stroke-width:0.3;stroke-linecap:round;stroke-linejoin:round;stroke-opacity:1" />
  <path
     d="m 137.9053,140.4466 0.0714,0.2857"
     id="path200"
     style="fill:none;stroke:#000000;stroke-width:0.3;stroke-linecap:round;stroke-linejoin:round;stroke-opacity:1" />
  <path
     d="m 137.9767,140.7323 v 0.5"
     id="path201"
     style="fill:none;stroke:#000000;stroke-width:0.3;stroke-linecap:round;stroke-linejoin:round;stroke-opacity:1" />
  <path
     d="m 137.9767,141.2323 -0.0714,0.2857"
     id="path202"
     style="fill:none;stroke:#000000;stroke-width:0.3;stroke-linecap:round;stroke-linejoin:round;stroke-opacity:1" />
  <path
     d="m 137.9053,141.518 -0.1429,0.1429"
     id="path203"
     style="fill:none;stroke:#000000;stroke-width:0.3;stroke-linecap:round;stroke-linejoin:round;stroke-opacity:1" />
  <path
     d="m 137.7624,141.6609 -0.1428,0.0714"
     id="path204"
     style="fill:none;stroke:#000000;stroke-width:0.3;stroke-linecap:round;stroke-linejoin:round;stroke-opacity:1" />
  <path
     d="m 137.6196,141.7323 h -0.2858"
     id="path205"
     style="fill:none;stroke:#000000;stroke-width:0.3;stroke-linecap:round;stroke-linejoin:round;stroke-opacity:1" />
  <path
     d="m 137.3338,141.7323 -0.1428,-0.0714"
     id="path206"
     style="fill:none;stroke:#000000;stroke-width:0.3;stroke-linecap:round;stroke-linejoin:round;stroke-opacity:1" />
  <path
     d="m 137.191,141.6609 -0.1429,-0.1429"
     id="path207"
     style="fill:none;stroke:#000000;stroke-width:0.3;stroke-linecap:round;stroke-linejoin:round;stroke-opacity:1" />
  <path
     d="m 137.0481,141.518 -0.0714,-0.2857"
     id="path208"
     style="fill:none;stroke:#000000;stroke-width:0.3;stroke-linecap:round;stroke-linejoin:round;stroke-opacity:1" />
  <path
     d="m 136.9767,141.2323 v -0.5"
     id="path209"
     style="fill:none;stroke:#000000;stroke-width:0.3;stroke-linecap:round;stroke-linejoin:round;stroke-opacity:1" />
  <path
     d="m 136.9767,140.7323 0.0714,-0.2857"
     id="path210"
     style="fill:none;stroke:#000000;stroke-width:0.3;stroke-linecap:round;stroke-linejoin:round;stroke-opacity:1" />
  <path
     d="m 137.0481,140.4466 0.1429,-0.1428"
     id="path211"
     style="fill:none;stroke:#000000;stroke-width:0.3;stroke-linecap:round;stroke-linejoin:round;stroke-opacity:1" />
  <path
     d="m 137.191,140.3038 0.1428,-0.0715"
     id="path212"
     style="fill:none;stroke:#000000;stroke-width:0.3;stroke-linecap:round;stroke-linejoin:round;stroke-opacity:1" />
  <path
     d="m 138.6196,140.2323 v 1.2143"
     id="path213"
     style="fill:none;stroke:#000000;stroke-width:0.3;stroke-linecap:round;stroke-linejoin:round;stroke-opacity:1" />
  <path
     d="m 138.6196,141.4466 0.0714,0.1429"
     id="path214"
     style="fill:none;stroke:#000000;stroke-width:0.3;stroke-linecap:round;stroke-linejoin:round;stroke-opacity:1" />
  <path
     d="m 138.691,141.5895 0.0714,0.0714"
     id="path215"
     style="fill:none;stroke:#000000;stroke-width:0.3;stroke-linecap:round;stroke-linejoin:round;stroke-opacity:1" />
  <path
     d="m 138.7624,141.6609 0.1429,0.0714"
     id="path216"
     style="fill:none;stroke:#000000;stroke-width:0.3;stroke-linecap:round;stroke-linejoin:round;stroke-opacity:1" />
  <path
     d="m 138.9053,141.7323 h 0.2857"
     id="path217"
     style="fill:none;stroke:#000000;stroke-width:0.3;stroke-linecap:round;stroke-linejoin:round;stroke-opacity:1" />
  <path
     d="m 139.191,141.7323 0.1428,-0.0714"
     id="path218"
     style="fill:none;stroke:#000000;stroke-width:0.3;stroke-linecap:round;stroke-linejoin:round;stroke-opacity:1" />
  <path
     d="m 139.3338,141.6609 0.0715,-0.0714"
     id="path219"
     style="fill:none;stroke:#000000;stroke-width:0.3;stroke-linecap:round;stroke-linejoin:round;stroke-opacity:1" />
  <path
     d="m 139.4053,141.5895 0.0714,-0.1429"
     id="path220"
     style="fill:none;stroke:#000000;stroke-width:0.3;stroke-linecap:round;stroke-linejoin:round;stroke-opacity:1" />
  <path
     d="m 139.4767,141.4466 v -1.2143"
     id="path221"
     style="fill:none;stroke:#000000;stroke-width:0.3;stroke-linecap:round;stroke-linejoin:round;stroke-opacity:1" />
  <path
     d="m 139.9767,140.2323 h 0.8571"
     id="path222"
     style="fill:none;stroke:#000000;stroke-width:0.3;stroke-linecap:round;stroke-linejoin:round;stroke-opacity:1" />
  <path
     d="m 140.4053,141.7323 v -1.5"
     id="path223"
     style="fill:none;stroke:#000000;stroke-width:0.3;stroke-linecap:round;stroke-linejoin:round;stroke-opacity:1" />
  <circle
     cx="134.22501"
     cy="102.69"
     r="2.7265"
     id="circle224"
     style="fill:#ffffff;fill-opacity:1;stroke:none" />
  <circle
     cx="120.257"
     cy="102.69"
     r="2.8320999"
     id="circle225"
     style="fill:#ffffff;fill-opacity:1;stroke:none" />
  <circle
     cx="134.22501"
     cy="117.93"
     r="3.302"
     id="circle226"
     style="fill:#ffffff;fill-opacity:1;stroke:none" />
  <circle
     cx="120.255"
     cy="133.17"
     r="3.302"
     id="circle227"
     style="fill:#ffffff;fill-opacity:1;stroke:none" />
  <circle
     cx="120.252"
     cy="117.93"
     r="3.302"
     id="circle228"
     style="fill:#ffffff;fill-opacity:1;stroke:none" />
  <circle
     cx="134.22501"
     cy="133.17"
     r="3.302"
     id="circle229"
     style="fill:#ffffff;fill-opacity:1;stroke:none" />
  <circle
     cx="127.24"
     cy="46.810001"
     r="3.302"
     id="circle230"
     style="fill:#ffffff;fill-opacity:1;stroke:none" />
  <circle
     cx="127.24"
     cy="74.75"
     r="3.302"
     id="circle231"
     style="fill:#ffffff;fill-opacity:1;stroke:none" />
  <path
     d="m 133.717,102.69 h 1.016"
     id="path232"
     style="fill:none;stroke:#000000;stroke-width:0.15;stroke-linecap:round;stroke-linejoin:round;stroke-opacity:1" />
  <path
     d="m 134.225,102.182 v 1.016"
     id="path233"
     style="fill:none;stroke:#000000;stroke-width:0.15;stroke-linecap:round;stroke-linejoin:round;stroke-opacity:1" />
  <path
     d="m 119.749,102.69 h 1.016"
     id="path234"
     style="fill:none;stroke:#000000;stroke-width:0.15;stroke-linecap:round;stroke-linejoin:round;stroke-opacity:1" />
  <path
     d="m 120.257,102.182 v 1.016"
     id="path235"
     style="fill:none;stroke:#000000;stroke-width:0.15;stroke-linecap:round;stroke-linejoin:round;stroke-opacity:1" />
  <path
     d="m 126.732,46.81 h 1.016"
     id="path236"
     style="fill:none;stroke:#000000;stroke-width:0.15;stroke-linecap:round;stroke-linejoin:round;stroke-opacity:1" />
  <path
     d="m 127.24,46.302 v 1.016"
     id="path237"
     style="fill:none;stroke:#000000;stroke-width:0.15;stroke-linecap:round;stroke-linejoin:round;stroke-opacity:1" />
  <g
     id="g245"
     style="fill:none;fill-opacity:1;stroke:#ff0000;stroke-opacity:1;stroke-width:0.01;stroke-dasharray:none">
    <path
       style="fill:none;fill-opacity:1;stroke:#ff0000;stroke-width:0.01;stroke-linecap:round;stroke-linejoin:round;stroke-opacity:1;stroke-dasharray:none"
       d="m 112,25.4 h 30 v 128.5 h -30 z"
       id="path1" />
    <path
       d="m 117.6725,26.8125 h 3.175"
       id="path2"
       style="fill:none;stroke:#ff0000;stroke-width:0.01;stroke-linecap:round;stroke-linejoin:round;stroke-opacity:1;fill-opacity:1;stroke-dasharray:none" />
    <path
       d="m 117.6725,29.9875 h 3.175"
       id="path3"
       style="fill:none;stroke:#ff0000;stroke-width:0.01;stroke-linecap:round;stroke-linejoin:round;stroke-opacity:1;fill-opacity:1;stroke-dasharray:none" />
    <path
       d="m 117.6725,26.8125 a 1.5875,1.5875 0 0 0 0,3.175"
       id="path4"
       style="fill:none;stroke:#ff0000;stroke-width:0.01;stroke-linecap:round;stroke-linejoin:round;stroke-opacity:1;fill-opacity:1;stroke-dasharray:none" />
    <path
       d="m 120.8475,29.9875 a 1.5875,1.5875 0 0 0 0,-3.175"
       id="path5"
       style="fill:none;stroke:#ff0000;stroke-width:0.01;stroke-linecap:round;stroke-linejoin:round;stroke-opacity:1;fill-opacity:1;stroke-dasharray:none" />
    <path
       d="m 132.9125,149.3125 h 3.175"
       id="path6"
       style="fill:none;stroke:#ff0000;stroke-width:0.01;stroke-linecap:round;stroke-linejoin:round;stroke-opacity:1;fill-opacity:1;stroke-dasharray:none" />
    <path
       d="m 132.9125,152.4875 h 3.175"
       id="path7"
       style="fill:none;stroke:#ff0000;stroke-width:0.01;stroke-linecap:round;stroke-linejoin:round;stroke-opacity:1;fill-opacity:1;stroke-dasharray:none" />
    <path
       d="m 132.9125,149.3125 a 1.5875,1.5875 0 0 0 0,3.175"
       id="path8"
       style="fill:none;stroke:#ff0000;stroke-width:0.01;stroke-linecap:round;stroke-linejoin:round;stroke-opacity:1;fill-opacity:1;stroke-dasharray:none" />
    <path
       d="m 136.0875,152.4875 a 1.5875,1.5875 0 0 0 0,-3.175"
       id="path9"
       style="fill:none;stroke:#ff0000;stroke-width:0.01;stroke-linecap:round;stroke-linejoin:round;stroke-opacity:1;fill-opacity:1;stroke-dasharray:none" />
    <circle
       cx="134.22501"
       cy="102.69"
       r="3.2344999"
       id="circle237"
       style="fill:none;stroke:#ff0000;stroke-width:0.01;stroke-linecap:round;stroke-linejoin:round;stroke-opacity:1;fill-opacity:1;stroke-dasharray:none" />
    <circle
       cx="120.257"
       cy="102.69"
       r="2.9844999"
       id="circle238"
       style="fill:none;stroke:#ff0000;stroke-width:0.01;stroke-linecap:round;stroke-linejoin:round;stroke-opacity:1;fill-opacity:1;stroke-dasharray:none" />
    <circle
       cx="134.22501"
       cy="117.93"
       r="3.8099999"
       id="circle239"
       style="fill:none;stroke:#ff0000;stroke-width:0.01;stroke-linecap:round;stroke-linejoin:round;stroke-opacity:1;fill-opacity:1;stroke-dasharray:none" />
    <circle
       cx="120.255"
       cy="133.17"
       r="3.8099999"
       id="circle240"
       style="fill:none;stroke:#ff0000;stroke-width:0.01;stroke-linecap:round;stroke-linejoin:round;stroke-opacity:1;fill-opacity:1;stroke-dasharray:none" />
    <circle
       cx="120.252"
       cy="117.93"
       r="3.8099999"
       id="circle241"
       style="fill:none;stroke:#ff0000;stroke-width:0.01;stroke-linecap:round;stroke-linejoin:round;stroke-opacity:1;fill-opacity:1;stroke-dasharray:none" />
    <circle
       cx="134.22501"
       cy="133.17"
       r="3.8099999"
       id="circle242"
       style="fill:none;stroke:#ff0000;stroke-width:0.01;stroke-linecap:round;stroke-linejoin:round;stroke-opacity:1;fill-opacity:1;stroke-dasharray:none" />
    <circle
       cx="127.24"
       cy="46.810001"
       r="3.8099999"
       id="circle243"
       style="fill:none;stroke:#ff0000;stroke-width:0.01;stroke-linecap:round;stroke-linejoin:round;stroke-opacity:1;fill-opacity:1;stroke-dasharray:none" />
    <circle
       cx="127.24"
       cy="74.75"
       r="3.8099999"
       id="circle244"
       style="fill:none;stroke:#ff0000;stroke-width:0.01;stroke-linecap:round;stroke-linejoin:round;stroke-opacity:1;fill-opacity:1;stroke-dasharray:none" />
  </g>
</svg>
